<?xml version="1.0" encoding="UTF-8" standalone="no"?>
<!DOCTYPE svg PUBLIC "-//W3C//DTD SVG 1.1//EN"
 "http://www.w3.org/Graphics/SVG/1.1/DTD/svg11.dtd">
<!-- Generated by graphviz version 13.1.0 (20250701.0955)
 -->
<!-- Title: ssd1315_basic_init Pages: 1 -->
<svg width="306pt" height="1898pt"
 viewBox="0.00 0.00 306.00 1898.00" xmlns="http://www.w3.org/2000/svg" xmlns:xlink="http://www.w3.org/1999/xlink">
<g id="graph0" class="graph" transform="scale(1 1) rotate(0) translate(4 1894)">
<title>ssd1315_basic_init</title>
<!-- Node1 -->
<g id="Node000001" class="node">
<title>Node1</title>
<g id="a_Node000001"><a xlink:title="basic example init">
<polygon fill="#999999" stroke="#666666" points="99.25,-955 0,-955 0,-935 99.25,-935 99.25,-955"/>
<text xml:space="preserve" text-anchor="middle" x="49.62" y="-941.5" font-family="Helvetica,sans-Serif" font-size="10.00">ssd1315_basic_init</text>
</a>
</g>
</g>
<!-- Node2 -->
<g id="Node000002" class="node">
<title>Node2</title>
<g id="a_Node000002"><a xlink:href="group__ssd1315__base__driver.html#ga02c894191a43af42543d4169a0315f61" target="_top" xlink:title="clear the screen">
<polygon fill="white" stroke="#666666" points="256.25,-1890 177.25,-1890 177.25,-1870 256.25,-1870 256.25,-1890"/>
<text xml:space="preserve" text-anchor="middle" x="216.75" y="-1876.5" font-family="Helvetica,sans-Serif" font-size="10.00">ssd1315_clear</text>
</a>
</g>
</g>
<!-- Node1&#45;&gt;Node2 -->
<g id="edge1_Node000001_Node000002" class="edge">
<title>Node1&#45;&gt;Node2</title>
<g id="a_edge1_Node000001_Node000002"><a xlink:title=" ">
<path fill="none" stroke="#63b8ff" d="M50.86,-955.33C53.14,-1051.51 72.58,-1788.91 135.25,-1861 143.03,-1869.95 154.17,-1875.11 165.69,-1877.98"/>
<polygon fill="#63b8ff" stroke="#63b8ff" points="164.8,-1881.37 175.27,-1879.8 166.11,-1874.49 164.8,-1881.37"/>
</a>
</g>
</g>
<!-- Node3 -->
<g id="Node000003" class="node">
<title>Node3</title>
<g id="a_Node000003"><a xlink:href="group__ssd1315__base__driver.html#ga403448762214b7388105281fa3a7f5f2" target="_top" xlink:title="deactivate the scroll">
<polygon fill="white" stroke="#666666" points="268.25,-1852 165.25,-1852 165.25,-1820 268.25,-1820 268.25,-1852"/>
<text xml:space="preserve" text-anchor="start" x="173.25" y="-1838.5" font-family="Helvetica,sans-Serif" font-size="10.00">ssd1315_deactivate</text>
<text xml:space="preserve" text-anchor="middle" x="216.75" y="-1826.5" font-family="Helvetica,sans-Serif" font-size="10.00">_scroll</text>
</a>
</g>
</g>
<!-- Node1&#45;&gt;Node3 -->
<g id="edge2_Node000001_Node000003" class="edge">
<title>Node1&#45;&gt;Node3</title>
<g id="a_edge2_Node000001_Node000003"><a xlink:title=" ">
<path fill="none" stroke="#63b8ff" d="M50.95,-955.31C53.97,-1048.35 78.31,-1741.09 135.25,-1811 140.4,-1817.32 147.11,-1822.07 154.47,-1825.64"/>
<polygon fill="#63b8ff" stroke="#63b8ff" points="152.83,-1828.75 163.42,-1829.24 155.45,-1822.26 152.83,-1828.75"/>
</a>
</g>
</g>
<!-- Node4 -->
<g id="Node000004" class="node">
<title>Node4</title>
<g id="a_Node000004"><a xlink:href="group__ssd1315__base__driver.html#gadfbdb7689e972075f4d9eb79936e9c59" target="_top" xlink:title="close the chip">
<polygon fill="white" stroke="#666666" points="257.38,-1802 176.12,-1802 176.12,-1782 257.38,-1782 257.38,-1802"/>
<text xml:space="preserve" text-anchor="middle" x="216.75" y="-1788.5" font-family="Helvetica,sans-Serif" font-size="10.00">ssd1315_deinit</text>
</a>
</g>
</g>
<!-- Node1&#45;&gt;Node4 -->
<g id="edge3_Node000001_Node000004" class="edge">
<title>Node1&#45;&gt;Node4</title>
<g id="a_edge3_Node000001_Node000004"><a xlink:title=" ">
<path fill="none" stroke="#63b8ff" d="M50.97,-955.46C54.08,-1046.87 78.47,-1708.32 135.25,-1773 142.85,-1781.66 153.6,-1786.76 164.77,-1789.68"/>
<polygon fill="#63b8ff" stroke="#63b8ff" points="164.01,-1793.09 174.5,-1791.62 165.38,-1786.23 164.01,-1793.09"/>
</a>
</g>
</g>
<!-- Node5 -->
<g id="Node000005" class="node">
<title>Node5</title>
<g id="a_Node000005"><a xlink:href="group__ssd1315__base__driver.html#ga3f71eec06d0a72c1a22df48fde47becb" target="_top" xlink:title="initialize the chip">
<polygon fill="white" stroke="#666666" points="252.12,-1764 181.38,-1764 181.38,-1744 252.12,-1744 252.12,-1764"/>
<text xml:space="preserve" text-anchor="middle" x="216.75" y="-1750.5" font-family="Helvetica,sans-Serif" font-size="10.00">ssd1315_init</text>
</a>
</g>
</g>
<!-- Node1&#45;&gt;Node5 -->
<g id="edge4_Node000001_Node000005" class="edge">
<title>Node1&#45;&gt;Node5</title>
<g id="a_edge4_Node000001_Node000005"><a xlink:title=" ">
<path fill="none" stroke="#63b8ff" d="M51.02,-955.25C54.47,-1043.53 80.96,-1673.45 135.25,-1735 143.99,-1744.91 156.85,-1750.15 169.74,-1752.8"/>
<polygon fill="#63b8ff" stroke="#63b8ff" points="169.06,-1756.24 179.48,-1754.28 170.12,-1749.32 169.06,-1756.24"/>
</a>
</g>
</g>
<!-- Node6 -->
<g id="Node000006" class="node">
<title>Node6</title>
<g id="a_Node000006"><a xlink:href="group__ssd1315__interface__driver.html#ga66cfbd17e1fd021e2cf6dfccbdf8724f" target="_top" xlink:title="interface print format data">
<polygon fill="white" stroke="#666666" points="280.25,-1726 153.25,-1726 153.25,-1694 280.25,-1694 280.25,-1726"/>
<text xml:space="preserve" text-anchor="start" x="161.25" y="-1712.5" font-family="Helvetica,sans-Serif" font-size="10.00">ssd1315_interface_debug</text>
<text xml:space="preserve" text-anchor="middle" x="216.75" y="-1700.5" font-family="Helvetica,sans-Serif" font-size="10.00">_print</text>
</a>
</g>
</g>
<!-- Node1&#45;&gt;Node6 -->
<g id="edge5_Node000001_Node000006" class="edge">
<title>Node1&#45;&gt;Node6</title>
<g id="a_edge5_Node000001_Node000006"><a xlink:title=" ">
<path fill="none" stroke="#63b8ff" d="M51.13,-955.38C55.4,-1040.78 86.32,-1625.93 135.25,-1685 137.68,-1687.93 140.44,-1690.52 143.45,-1692.82"/>
<polygon fill="#63b8ff" stroke="#63b8ff" points="141.49,-1695.72 151.83,-1698.04 145.19,-1689.78 141.49,-1695.72"/>
</a>
</g>
</g>
<!-- Node7 -->
<g id="Node000007" class="node">
<title>Node7</title>
<g id="a_Node000007"><a xlink:href="group__ssd1315__interface__driver.html#ga948728bbc3384f6cfdcaea461de0d5a2" target="_top" xlink:title="interface delay ms">
<polygon fill="white" stroke="#666666" points="288.12,-1676 145.38,-1676 145.38,-1656 288.12,-1656 288.12,-1676"/>
<text xml:space="preserve" text-anchor="middle" x="216.75" y="-1662.5" font-family="Helvetica,sans-Serif" font-size="10.00">ssd1315_interface_delay_ms</text>
</a>
</g>
</g>
<!-- Node1&#45;&gt;Node7 -->
<g id="edge6_Node000001_Node000007" class="edge">
<title>Node1&#45;&gt;Node7</title>
<g id="a_edge6_Node000001_Node000007"><a xlink:title=" ">
<path fill="none" stroke="#63b8ff" d="M51.17,-955.39C55.59,-1038.46 86.82,-1592.83 135.25,-1647 135.73,-1647.54 136.22,-1648.06 136.72,-1648.57"/>
<polygon fill="#63b8ff" stroke="#63b8ff" points="134.54,-1651.3 144.56,-1654.75 138.87,-1645.8 134.54,-1651.3"/>
</a>
</g>
</g>
<!-- Node8 -->
<g id="Node000008" class="node">
<title>Node8</title>
<g id="a_Node000008"><a xlink:href="group__ssd1315__interface__driver.html#ga23adc6be090cbb503e27a70591c0b0d3" target="_top" xlink:title="interface iic bus deinit">
<polygon fill="white" stroke="#666666" points="272,-1638 161.5,-1638 161.5,-1606 272,-1606 272,-1638"/>
<text xml:space="preserve" text-anchor="start" x="169.5" y="-1624.5" font-family="Helvetica,sans-Serif" font-size="10.00">ssd1315_interface_iic</text>
<text xml:space="preserve" text-anchor="middle" x="216.75" y="-1612.5" font-family="Helvetica,sans-Serif" font-size="10.00">_deinit</text>
</a>
</g>
</g>
<!-- Node1&#45;&gt;Node8 -->
<g id="edge7_Node000001_Node000008" class="edge">
<title>Node1&#45;&gt;Node8</title>
<g id="a_edge7_Node000001_Node000008"><a xlink:title=" ">
<path fill="none" stroke="#63b8ff" d="M50.5,-955.37C49.77,-1030.74 48.91,-1494.37 135.25,-1597 139.6,-1602.17 144.99,-1606.28 150.91,-1609.56"/>
<polygon fill="#63b8ff" stroke="#63b8ff" points="149.36,-1612.7 159.91,-1613.69 152.28,-1606.33 149.36,-1612.7"/>
</a>
</g>
</g>
<!-- Node9 -->
<g id="Node000009" class="node">
<title>Node9</title>
<g id="a_Node000009"><a xlink:href="group__ssd1315__interface__driver.html#ga71e5d8ea634380564dfeaed763d6ef9a" target="_top" xlink:title="interface iic bus init">
<polygon fill="white" stroke="#666666" points="281,-1588 152.5,-1588 152.5,-1568 281,-1568 281,-1588"/>
<text xml:space="preserve" text-anchor="middle" x="216.75" y="-1574.5" font-family="Helvetica,sans-Serif" font-size="10.00">ssd1315_interface_iic_init</text>
</a>
</g>
</g>
<!-- Node1&#45;&gt;Node9 -->
<g id="edge8_Node000001_Node000009" class="edge">
<title>Node1&#45;&gt;Node9</title>
<g id="a_edge8_Node000001_Node000009"><a xlink:title=" ">
<path fill="none" stroke="#63b8ff" d="M50.52,-955.29C49.98,-1028.12 50.36,-1465.66 135.25,-1559 137.4,-1561.36 139.77,-1563.45 142.33,-1565.31"/>
<polygon fill="#63b8ff" stroke="#63b8ff" points="140.53,-1568.31 150.94,-1570.28 144.03,-1562.25 140.53,-1568.31"/>
</a>
</g>
</g>
<!-- Node10 -->
<g id="Node000010" class="node">
<title>Node10</title>
<g id="a_Node000010"><a xlink:href="group__ssd1315__interface__driver.html#gaf1c97a64d7174bb06ebe513a4ade2149" target="_top" xlink:title="interface iic bus write">
<polygon fill="white" stroke="#666666" points="272,-1550 161.5,-1550 161.5,-1518 272,-1518 272,-1550"/>
<text xml:space="preserve" text-anchor="start" x="169.5" y="-1536.5" font-family="Helvetica,sans-Serif" font-size="10.00">ssd1315_interface_iic</text>
<text xml:space="preserve" text-anchor="middle" x="216.75" y="-1524.5" font-family="Helvetica,sans-Serif" font-size="10.00">_write</text>
</a>
</g>
</g>
<!-- Node1&#45;&gt;Node10 -->
<g id="edge9_Node000001_Node000010" class="edge">
<title>Node1&#45;&gt;Node10</title>
<g id="a_edge9_Node000001_Node000010"><a xlink:title=" ">
<path fill="none" stroke="#63b8ff" d="M50.73,-955.27C51.61,-1024.36 59.96,-1421.28 135.25,-1509 139.65,-1514.12 145.07,-1518.21 151.01,-1521.47"/>
<polygon fill="#63b8ff" stroke="#63b8ff" points="149.48,-1524.62 160.03,-1525.58 152.38,-1518.25 149.48,-1524.62"/>
</a>
</g>
</g>
<!-- Node11 -->
<g id="Node000011" class="node">
<title>Node11</title>
<g id="a_Node000011"><a xlink:href="group__ssd1315__interface__driver.html#ga489faee0b7478e175d187364383cf0d9" target="_top" xlink:title="interface reset gpio deinit">
<polygon fill="white" stroke="#666666" points="278,-1500 155.5,-1500 155.5,-1468 278,-1468 278,-1500"/>
<text xml:space="preserve" text-anchor="start" x="163.5" y="-1486.5" font-family="Helvetica,sans-Serif" font-size="10.00">ssd1315_interface_reset</text>
<text xml:space="preserve" text-anchor="middle" x="216.75" y="-1474.5" font-family="Helvetica,sans-Serif" font-size="10.00">_gpio_deinit</text>
</a>
</g>
</g>
<!-- Node1&#45;&gt;Node11 -->
<g id="edge10_Node000001_Node000011" class="edge">
<title>Node1&#45;&gt;Node11</title>
<g id="a_edge10_Node000001_Node000011"><a xlink:title=" ">
<path fill="none" stroke="#63b8ff" d="M50.89,-955.19C52.77,-1020.48 66.21,-1379.71 135.25,-1459 138.25,-1462.44 141.71,-1465.41 145.47,-1467.98"/>
<polygon fill="#63b8ff" stroke="#63b8ff" points="143.63,-1470.96 154.06,-1472.83 147.07,-1464.86 143.63,-1470.96"/>
</a>
</g>
</g>
<!-- Node12 -->
<g id="Node000012" class="node">
<title>Node12</title>
<g id="a_Node000012"><a xlink:href="group__ssd1315__interface__driver.html#ga3d27807f31f7c98bf99d5198ba861be2" target="_top" xlink:title="interface reset gpio init">
<polygon fill="white" stroke="#666666" points="278,-1450 155.5,-1450 155.5,-1418 278,-1418 278,-1450"/>
<text xml:space="preserve" text-anchor="start" x="163.5" y="-1436.5" font-family="Helvetica,sans-Serif" font-size="10.00">ssd1315_interface_reset</text>
<text xml:space="preserve" text-anchor="middle" x="216.75" y="-1424.5" font-family="Helvetica,sans-Serif" font-size="10.00">_gpio_init</text>
</a>
</g>
</g>
<!-- Node1&#45;&gt;Node12 -->
<g id="edge11_Node000001_Node000012" class="edge">
<title>Node1&#45;&gt;Node12</title>
<g id="a_edge11_Node000001_Node000012"><a xlink:title=" ">
<path fill="none" stroke="#63b8ff" d="M51.09,-955.39C54.1,-1017.37 72.53,-1338.21 135.25,-1409 138.22,-1412.35 141.64,-1415.26 145.34,-1417.79"/>
<polygon fill="#63b8ff" stroke="#63b8ff" points="143.33,-1420.67 153.76,-1422.55 146.78,-1414.58 143.33,-1420.67"/>
</a>
</g>
</g>
<!-- Node13 -->
<g id="Node000013" class="node">
<title>Node13</title>
<g id="a_Node000013"><a xlink:href="group__ssd1315__interface__driver.html#ga89586a182332d1bdc88fd82662dcb301" target="_top" xlink:title="interface reset gpio write">
<polygon fill="white" stroke="#666666" points="278,-1400 155.5,-1400 155.5,-1368 278,-1368 278,-1400"/>
<text xml:space="preserve" text-anchor="start" x="163.5" y="-1386.5" font-family="Helvetica,sans-Serif" font-size="10.00">ssd1315_interface_reset</text>
<text xml:space="preserve" text-anchor="middle" x="216.75" y="-1374.5" font-family="Helvetica,sans-Serif" font-size="10.00">_gpio_write</text>
</a>
</g>
</g>
<!-- Node1&#45;&gt;Node13 -->
<g id="edge12_Node000001_Node000013" class="edge">
<title>Node1&#45;&gt;Node13</title>
<g id="a_edge12_Node000001_Node000013"><a xlink:title=" ">
<path fill="none" stroke="#63b8ff" d="M51.34,-955.38C55.54,-1013.35 78.76,-1296.59 135.25,-1359 138.26,-1362.32 141.7,-1365.21 145.42,-1367.71"/>
<polygon fill="#63b8ff" stroke="#63b8ff" points="143.44,-1370.61 153.87,-1372.45 146.86,-1364.51 143.44,-1370.61"/>
</a>
</g>
</g>
<!-- Node14 -->
<g id="Node000014" class="node">
<title>Node14</title>
<g id="a_Node000014"><a xlink:href="group__ssd1315__interface__driver.html#gae9d02b76e21c2026fb5dc6d04a969fcc" target="_top" xlink:title="interface command &amp;&amp; data gpio deinit">
<polygon fill="white" stroke="#666666" points="274.62,-1350 158.88,-1350 158.88,-1318 274.62,-1318 274.62,-1350"/>
<text xml:space="preserve" text-anchor="start" x="166.88" y="-1336.5" font-family="Helvetica,sans-Serif" font-size="10.00">ssd1315_interface_spi</text>
<text xml:space="preserve" text-anchor="middle" x="216.75" y="-1324.5" font-family="Helvetica,sans-Serif" font-size="10.00">_cmd_data_gpio_deinit</text>
</a>
</g>
</g>
<!-- Node1&#45;&gt;Node14 -->
<g id="edge13_Node000001_Node000014" class="edge">
<title>Node1&#45;&gt;Node14</title>
<g id="a_edge13_Node000001_Node000014"><a xlink:title=" ">
<path fill="none" stroke="#63b8ff" d="M51.63,-955.17C57.11,-1008.42 84.89,-1254.83 135.25,-1309 139.14,-1313.18 143.71,-1316.67 148.66,-1319.57"/>
<polygon fill="#63b8ff" stroke="#63b8ff" points="146.72,-1322.52 157.23,-1323.81 149.82,-1316.24 146.72,-1322.52"/>
</a>
</g>
</g>
<!-- Node15 -->
<g id="Node000015" class="node">
<title>Node15</title>
<g id="a_Node000015"><a xlink:href="group__ssd1315__interface__driver.html#gad0dc59c2b1abd75fadf17498bb1142d2" target="_top" xlink:title="interface command &amp;&amp; data gpio init">
<polygon fill="white" stroke="#666666" points="273.5,-1300 160,-1300 160,-1268 273.5,-1268 273.5,-1300"/>
<text xml:space="preserve" text-anchor="start" x="168" y="-1286.5" font-family="Helvetica,sans-Serif" font-size="10.00">ssd1315_interface_spi</text>
<text xml:space="preserve" text-anchor="middle" x="216.75" y="-1274.5" font-family="Helvetica,sans-Serif" font-size="10.00">_cmd_data_gpio_init</text>
</a>
</g>
</g>
<!-- Node1&#45;&gt;Node15 -->
<g id="edge14_Node000001_Node000015" class="edge">
<title>Node1&#45;&gt;Node15</title>
<g id="a_edge14_Node000001_Node000015"><a xlink:title=" ">
<path fill="none" stroke="#63b8ff" d="M50.11,-955.37C48.52,-998.88 48.32,-1168.71 135.25,-1259 139.33,-1263.24 144.12,-1266.76 149.29,-1269.69"/>
<polygon fill="#63b8ff" stroke="#63b8ff" points="147.72,-1272.82 158.25,-1273.97 150.73,-1266.51 147.72,-1272.82"/>
</a>
</g>
</g>
<!-- Node16 -->
<g id="Node000016" class="node">
<title>Node16</title>
<g id="a_Node000016"><a xlink:href="group__ssd1315__interface__driver.html#ga303da6568182e47ae57182556317ca34" target="_top" xlink:title="interface command &amp;&amp; data gpio write">
<polygon fill="white" stroke="#666666" points="273.5,-1250 160,-1250 160,-1218 273.5,-1218 273.5,-1250"/>
<text xml:space="preserve" text-anchor="start" x="168" y="-1236.5" font-family="Helvetica,sans-Serif" font-size="10.00">ssd1315_interface_spi</text>
<text xml:space="preserve" text-anchor="middle" x="216.75" y="-1224.5" font-family="Helvetica,sans-Serif" font-size="10.00">_cmd_data_gpio_write</text>
</a>
</g>
</g>
<!-- Node1&#45;&gt;Node16 -->
<g id="edge15_Node000001_Node000016" class="edge">
<title>Node1&#45;&gt;Node16</title>
<g id="a_edge15_Node000001_Node000016"><a xlink:title=" ">
<path fill="none" stroke="#63b8ff" d="M50.73,-955.3C51.68,-994.35 60.38,-1134.81 135.25,-1209 139.43,-1213.14 144.28,-1216.6 149.5,-1219.49"/>
<polygon fill="#63b8ff" stroke="#63b8ff" points="147.97,-1222.64 158.51,-1223.72 150.95,-1216.3 147.97,-1222.64"/>
</a>
</g>
</g>
<!-- Node17 -->
<g id="Node000017" class="node">
<title>Node17</title>
<g id="a_Node000017"><a xlink:href="group__ssd1315__interface__driver.html#ga6ea74dc116a49af50fc7de1b981e354a" target="_top" xlink:title="interface spi bus deinit">
<polygon fill="white" stroke="#666666" points="273.5,-1200 160,-1200 160,-1168 273.5,-1168 273.5,-1200"/>
<text xml:space="preserve" text-anchor="start" x="168" y="-1186.5" font-family="Helvetica,sans-Serif" font-size="10.00">ssd1315_interface_spi</text>
<text xml:space="preserve" text-anchor="middle" x="216.75" y="-1174.5" font-family="Helvetica,sans-Serif" font-size="10.00">_deinit</text>
</a>
</g>
</g>
<!-- Node1&#45;&gt;Node17 -->
<g id="edge16_Node000001_Node000017" class="edge">
<title>Node1&#45;&gt;Node17</title>
<g id="a_edge16_Node000001_Node000017"><a xlink:title=" ">
<path fill="none" stroke="#63b8ff" d="M51.59,-955.21C55.39,-989.35 72.26,-1100.6 135.25,-1159 139.5,-1162.94 144.36,-1166.26 149.55,-1169.06"/>
<polygon fill="#63b8ff" stroke="#63b8ff" points="147.91,-1172.16 158.46,-1173.18 150.85,-1165.81 147.91,-1172.16"/>
</a>
</g>
</g>
<!-- Node18 -->
<g id="Node000018" class="node">
<title>Node18</title>
<g id="a_Node000018"><a xlink:href="group__ssd1315__interface__driver.html#ga5878d8d76e365389fbcd81a858c10ae0" target="_top" xlink:title="interface spi bus init">
<polygon fill="white" stroke="#666666" points="282.5,-1150 151,-1150 151,-1130 282.5,-1130 282.5,-1150"/>
<text xml:space="preserve" text-anchor="middle" x="216.75" y="-1136.5" font-family="Helvetica,sans-Serif" font-size="10.00">ssd1315_interface_spi_init</text>
</a>
</g>
</g>
<!-- Node1&#45;&gt;Node18 -->
<g id="edge17_Node000001_Node000018" class="edge">
<title>Node1&#45;&gt;Node18</title>
<g id="a_edge17_Node000001_Node000018"><a xlink:title=" ">
<path fill="none" stroke="#63b8ff" d="M52.38,-955.25C58.16,-985.68 79.5,-1076.17 135.25,-1121 137.01,-1122.42 138.86,-1123.73 140.78,-1124.95"/>
<polygon fill="#63b8ff" stroke="#63b8ff" points="139.08,-1128.01 149.55,-1129.58 142.35,-1121.82 139.08,-1128.01"/>
</a>
</g>
</g>
<!-- Node19 -->
<g id="Node000019" class="node">
<title>Node19</title>
<g id="a_Node000019"><a xlink:href="group__ssd1315__interface__driver.html#ga5ca066939a033567c2cba496ed42d530" target="_top" xlink:title="interface spi bus write">
<polygon fill="white" stroke="#666666" points="273.5,-1112 160,-1112 160,-1080 273.5,-1080 273.5,-1112"/>
<text xml:space="preserve" text-anchor="start" x="168" y="-1098.5" font-family="Helvetica,sans-Serif" font-size="10.00">ssd1315_interface_spi</text>
<text xml:space="preserve" text-anchor="middle" x="216.75" y="-1086.5" font-family="Helvetica,sans-Serif" font-size="10.00">_write_cmd</text>
</a>
</g>
</g>
<!-- Node1&#45;&gt;Node19 -->
<g id="edge18_Node000001_Node000019" class="edge">
<title>Node1&#45;&gt;Node19</title>
<g id="a_edge18_Node000001_Node000019"><a xlink:title=" ">
<path fill="none" stroke="#63b8ff" d="M54.63,-955.21C64.55,-979.14 92.56,-1039.2 135.25,-1071 139.57,-1074.22 144.31,-1077.03 149.27,-1079.48"/>
<polygon fill="#63b8ff" stroke="#63b8ff" points="147.71,-1082.62 158.28,-1083.42 150.52,-1076.21 147.71,-1082.62"/>
</a>
</g>
</g>
<!-- Node20 -->
<g id="Node000020" class="node">
<title>Node20</title>
<g id="a_Node000020"><a xlink:href="group__ssd1315__base__driver.html#gaba6cf1a8d62b043c16a4f93283621c5f" target="_top" xlink:title="set the chip iic address">
<polygon fill="white" stroke="#666666" points="273.5,-1062 160,-1062 160,-1042 273.5,-1042 273.5,-1062"/>
<text xml:space="preserve" text-anchor="middle" x="216.75" y="-1048.5" font-family="Helvetica,sans-Serif" font-size="10.00">ssd1315_set_addr_pin</text>
</a>
</g>
</g>
<!-- Node1&#45;&gt;Node20 -->
<g id="edge19_Node000001_Node000020" class="edge">
<title>Node1&#45;&gt;Node20</title>
<g id="a_edge19_Node000001_Node000020"><a xlink:title=" ">
<path fill="none" stroke="#63b8ff" d="M57.42,-955.26C70.29,-973.83 100.08,-1012.94 135.25,-1033 139.58,-1035.47 144.21,-1037.62 148.98,-1039.49"/>
<polygon fill="#63b8ff" stroke="#63b8ff" points="147.58,-1042.7 158.17,-1042.66 149.86,-1036.09 147.58,-1042.7"/>
</a>
</g>
</g>
<!-- Node21 -->
<g id="Node000021" class="node">
<title>Node21</title>
<g id="a_Node000021"><a xlink:href="group__ssd1315__base__driver.html#ga636426ba5b34877da314850c3feee03d" target="_top" xlink:title="enable or disable the charge pump">
<polygon fill="white" stroke="#666666" points="284.38,-1024 149.12,-1024 149.12,-1004 284.38,-1004 284.38,-1024"/>
<text xml:space="preserve" text-anchor="middle" x="216.75" y="-1010.5" font-family="Helvetica,sans-Serif" font-size="10.00">ssd1315_set_charge_pump</text>
</a>
</g>
</g>
<!-- Node1&#45;&gt;Node21 -->
<g id="edge20_Node000001_Node000021" class="edge">
<title>Node1&#45;&gt;Node21</title>
<g id="a_edge20_Node000001_Node000021"><a xlink:title=" ">
<path fill="none" stroke="#63b8ff" d="M65.2,-955.48C81.53,-966.75 109.13,-984.49 135.25,-995 140.15,-996.97 145.31,-998.77 150.55,-1000.41"/>
<polygon fill="#63b8ff" stroke="#63b8ff" points="149.32,-1003.7 159.9,-1003.11 151.27,-996.97 149.32,-1003.7"/>
</a>
</g>
</g>
<!-- Node22 -->
<g id="Node000022" class="node">
<title>Node22</title>
<g id="a_Node000022"><a xlink:href="group__ssd1315__base__driver.html#gaf73633add09cd309645d6f7fba6a32bf" target="_top" xlink:title="set the column address range">
<polygon fill="white" stroke="#666666" points="270.88,-986 162.62,-986 162.62,-954 270.88,-954 270.88,-986"/>
<text xml:space="preserve" text-anchor="start" x="170.62" y="-972.5" font-family="Helvetica,sans-Serif" font-size="10.00">ssd1315_set_column</text>
<text xml:space="preserve" text-anchor="middle" x="216.75" y="-960.5" font-family="Helvetica,sans-Serif" font-size="10.00">_address_range</text>
</a>
</g>
</g>
<!-- Node1&#45;&gt;Node22 -->
<g id="edge21_Node000001_Node000022" class="edge">
<title>Node1&#45;&gt;Node22</title>
<g id="a_edge21_Node000001_Node000022"><a xlink:title=" ">
<path fill="none" stroke="#63b8ff" d="M99.72,-952.43C115.86,-954.88 134.06,-957.63 151.18,-960.22"/>
<polygon fill="#63b8ff" stroke="#63b8ff" points="150.32,-963.63 160.74,-961.67 151.37,-956.71 150.32,-963.63"/>
</a>
</g>
</g>
<!-- Node23 -->
<g id="Node000023" class="node">
<title>Node23</title>
<g id="a_Node000023"><a xlink:href="group__ssd1315__base__driver.html#gadc6cfb0673de847e8ea31103b6ac5c69" target="_top" xlink:title="set the hardware com pins">
<polygon fill="white" stroke="#666666" points="276.12,-936 157.38,-936 157.38,-904 276.12,-904 276.12,-936"/>
<text xml:space="preserve" text-anchor="start" x="165.38" y="-922.5" font-family="Helvetica,sans-Serif" font-size="10.00">ssd1315_set_com_pins</text>
<text xml:space="preserve" text-anchor="middle" x="216.75" y="-910.5" font-family="Helvetica,sans-Serif" font-size="10.00">_hardware_conf</text>
</a>
</g>
</g>
<!-- Node1&#45;&gt;Node23 -->
<g id="edge22_Node000001_Node000023" class="edge">
<title>Node1&#45;&gt;Node23</title>
<g id="a_edge22_Node000001_Node000023"><a xlink:title=" ">
<path fill="none" stroke="#63b8ff" d="M99.72,-937.57C114.18,-935.38 130.29,-932.94 145.79,-930.59"/>
<polygon fill="#63b8ff" stroke="#63b8ff" points="146.07,-934.09 155.44,-929.13 145.02,-927.17 146.07,-934.09"/>
</a>
</g>
</g>
<!-- Node24 -->
<g id="Node000024" class="node">
<title>Node24</title>
<g id="a_Node000024"><a xlink:href="group__ssd1315__base__driver.html#gad25cf3e6c56532ad83508471bdbb301b" target="_top" xlink:title="set the display contrast">
<polygon fill="white" stroke="#666666" points="272.75,-886 160.75,-886 160.75,-866 272.75,-866 272.75,-886"/>
<text xml:space="preserve" text-anchor="middle" x="216.75" y="-872.5" font-family="Helvetica,sans-Serif" font-size="10.00">ssd1315_set_contrast</text>
</a>
</g>
</g>
<!-- Node1&#45;&gt;Node24 -->
<g id="edge23_Node000001_Node000024" class="edge">
<title>Node1&#45;&gt;Node24</title>
<g id="a_edge23_Node000001_Node000024"><a xlink:title=" ">
<path fill="none" stroke="#63b8ff" d="M65.2,-934.52C81.53,-923.25 109.13,-905.51 135.25,-895 140.15,-893.03 145.31,-891.23 150.55,-889.59"/>
<polygon fill="#63b8ff" stroke="#63b8ff" points="151.27,-893.03 159.9,-886.89 149.32,-886.3 151.27,-893.03"/>
</a>
</g>
</g>
<!-- Node25 -->
<g id="Node000025" class="node">
<title>Node25</title>
<g id="a_Node000025"><a xlink:href="group__ssd1315__base__driver.html#gaec320c631135f244b0057f61fcee74e9" target="_top" xlink:title="set the deselect level">
<polygon fill="white" stroke="#666666" points="273.5,-848 160,-848 160,-816 273.5,-816 273.5,-848"/>
<text xml:space="preserve" text-anchor="start" x="168" y="-834.5" font-family="Helvetica,sans-Serif" font-size="10.00">ssd1315_set_deselect</text>
<text xml:space="preserve" text-anchor="middle" x="216.75" y="-822.5" font-family="Helvetica,sans-Serif" font-size="10.00">_level</text>
</a>
</g>
</g>
<!-- Node1&#45;&gt;Node25 -->
<g id="edge24_Node000001_Node000025" class="edge">
<title>Node1&#45;&gt;Node25</title>
<g id="a_edge24_Node000001_Node000025"><a xlink:title=" ">
<path fill="none" stroke="#63b8ff" d="M57.77,-934.69C70.97,-916.38 100.98,-878.15 135.25,-857 139.57,-854.33 144.2,-851.93 148.97,-849.77"/>
<polygon fill="#63b8ff" stroke="#63b8ff" points="150.26,-853.02 158.18,-845.99 147.6,-846.55 150.26,-853.02"/>
</a>
</g>
</g>
<!-- Node26 -->
<g id="Node000026" class="node">
<title>Node26</title>
<g id="a_Node000026"><a xlink:href="group__ssd1315__base__driver.html#ga561d8fbdda056e323c7be03fb923cd0e" target="_top" xlink:title="enable or disable the display">
<polygon fill="white" stroke="#666666" points="270.5,-798 163,-798 163,-778 270.5,-778 270.5,-798"/>
<text xml:space="preserve" text-anchor="middle" x="216.75" y="-784.5" font-family="Helvetica,sans-Serif" font-size="10.00">ssd1315_set_display</text>
</a>
</g>
</g>
<!-- Node1&#45;&gt;Node26 -->
<g id="edge25_Node000001_Node000026" class="edge">
<title>Node1&#45;&gt;Node26</title>
<g id="a_edge25_Node000001_Node000026"><a xlink:title=" ">
<path fill="none" stroke="#63b8ff" d="M53.8,-934.77C62.38,-908.95 88.57,-840.77 135.25,-807 140.47,-803.23 146.33,-800.19 152.44,-797.75"/>
<polygon fill="#63b8ff" stroke="#63b8ff" points="153.14,-801.21 161.48,-794.67 150.89,-794.59 153.14,-801.21"/>
</a>
</g>
</g>
<!-- Node27 -->
<g id="Node000027" class="node">
<title>Node27</title>
<g id="a_Node000027"><a xlink:href="group__ssd1315__base__driver.html#ga8b1f24a9f916a7dd450eb26e5cc2a88a" target="_top" xlink:title="set the display clock">
<polygon fill="white" stroke="#666666" points="270.5,-760 163,-760 163,-728 270.5,-728 270.5,-760"/>
<text xml:space="preserve" text-anchor="start" x="171" y="-746.5" font-family="Helvetica,sans-Serif" font-size="10.00">ssd1315_set_display</text>
<text xml:space="preserve" text-anchor="middle" x="216.75" y="-734.5" font-family="Helvetica,sans-Serif" font-size="10.00">_clock</text>
</a>
</g>
</g>
<!-- Node1&#45;&gt;Node27 -->
<g id="edge26_Node000001_Node000027" class="edge">
<title>Node1&#45;&gt;Node27</title>
<g id="a_edge26_Node000001_Node000027"><a xlink:title=" ">
<path fill="none" stroke="#63b8ff" d="M52.53,-934.93C58.72,-904.99 81.09,-815.73 135.25,-769 140.29,-764.65 146.08,-761.06 152.19,-758.09"/>
<polygon fill="#63b8ff" stroke="#63b8ff" points="153.46,-761.36 161.32,-754.25 150.75,-754.9 153.46,-761.36"/>
</a>
</g>
</g>
<!-- Node28 -->
<g id="Node000028" class="node">
<title>Node28</title>
<g id="a_Node000028"><a xlink:href="group__ssd1315__base__driver.html#ga3ad1f873ccfa2ba48e32329246a6eaa9" target="_top" xlink:title="set the display mode">
<polygon fill="white" stroke="#666666" points="285.12,-710 148.38,-710 148.38,-690 285.12,-690 285.12,-710"/>
<text xml:space="preserve" text-anchor="middle" x="216.75" y="-696.5" font-family="Helvetica,sans-Serif" font-size="10.00">ssd1315_set_display_mode</text>
</a>
</g>
</g>
<!-- Node1&#45;&gt;Node28 -->
<g id="edge27_Node000001_Node000028" class="edge">
<title>Node1&#45;&gt;Node28</title>
<g id="a_edge27_Node000001_Node000028"><a xlink:title=" ">
<path fill="none" stroke="#63b8ff" d="M51.2,-934.55C53.78,-898.59 67.34,-778.82 135.25,-719 136.34,-718.04 137.47,-717.12 138.64,-716.25"/>
<polygon fill="#63b8ff" stroke="#63b8ff" points="140.19,-719.41 146.88,-711.2 136.53,-713.44 140.19,-719.41"/>
</a>
</g>
</g>
<!-- Node29 -->
<g id="Node000029" class="node">
<title>Node29</title>
<g id="a_Node000029"><a xlink:href="group__ssd1315__base__driver.html#gaa4de78544224318eff201be0bce8a4dd" target="_top" xlink:title="set the display offset">
<polygon fill="white" stroke="#666666" points="270.5,-672 163,-672 163,-640 270.5,-640 270.5,-672"/>
<text xml:space="preserve" text-anchor="start" x="171" y="-658.5" font-family="Helvetica,sans-Serif" font-size="10.00">ssd1315_set_display</text>
<text xml:space="preserve" text-anchor="middle" x="216.75" y="-646.5" font-family="Helvetica,sans-Serif" font-size="10.00">_offset</text>
</a>
</g>
</g>
<!-- Node1&#45;&gt;Node29 -->
<g id="edge28_Node000001_Node000029" class="edge">
<title>Node1&#45;&gt;Node29</title>
<g id="a_edge28_Node000001_Node000029"><a xlink:title=" ">
<path fill="none" stroke="#63b8ff" d="M50.73,-934.7C51.68,-895.65 60.38,-755.19 135.25,-681 140.23,-676.07 146.16,-672.1 152.52,-668.92"/>
<polygon fill="#63b8ff" stroke="#63b8ff" points="153.57,-672.28 161.4,-665.13 150.82,-665.84 153.57,-672.28"/>
</a>
</g>
</g>
<!-- Node30 -->
<g id="Node000030" class="node">
<title>Node30</title>
<g id="a_Node000030"><a xlink:href="group__ssd1315__base__driver.html#ga4937094fec7bda356b6b0f6e4de1b58a" target="_top" xlink:title="set the display start line">
<polygon fill="white" stroke="#666666" points="270.5,-622 163,-622 163,-590 270.5,-590 270.5,-622"/>
<text xml:space="preserve" text-anchor="start" x="171" y="-608.5" font-family="Helvetica,sans-Serif" font-size="10.00">ssd1315_set_display</text>
<text xml:space="preserve" text-anchor="middle" x="216.75" y="-596.5" font-family="Helvetica,sans-Serif" font-size="10.00">_start_line</text>
</a>
</g>
</g>
<!-- Node1&#45;&gt;Node30 -->
<g id="edge29_Node000001_Node000030" class="edge">
<title>Node1&#45;&gt;Node30</title>
<g id="a_edge29_Node000001_Node000030"><a xlink:title=" ">
<path fill="none" stroke="#63b8ff" d="M50.11,-934.63C48.52,-891.12 48.32,-721.29 135.25,-631 140.11,-625.95 145.97,-621.91 152.29,-618.69"/>
<polygon fill="#63b8ff" stroke="#63b8ff" points="153.34,-622.05 161.12,-614.86 150.56,-615.63 153.34,-622.05"/>
</a>
</g>
</g>
<!-- Node31 -->
<g id="Node000031" class="node">
<title>Node31</title>
<g id="a_Node000031"><a xlink:href="group__ssd1315__base__driver.html#ga0769254f14f6eb0df080c24bd36552ba" target="_top" xlink:title="enable or disable the entire display">
<polygon fill="white" stroke="#666666" points="267.12,-572 166.38,-572 166.38,-540 267.12,-540 267.12,-572"/>
<text xml:space="preserve" text-anchor="start" x="174.38" y="-558.5" font-family="Helvetica,sans-Serif" font-size="10.00">ssd1315_set_entire</text>
<text xml:space="preserve" text-anchor="middle" x="216.75" y="-546.5" font-family="Helvetica,sans-Serif" font-size="10.00">_display</text>
</a>
</g>
</g>
<!-- Node1&#45;&gt;Node31 -->
<g id="edge30_Node000001_Node000031" class="edge">
<title>Node1&#45;&gt;Node31</title>
<g id="a_edge30_Node000001_Node000031"><a xlink:title=" ">
<path fill="none" stroke="#63b8ff" d="M51.63,-934.83C57.11,-881.58 84.89,-635.17 135.25,-581 140.87,-574.96 147.92,-570.37 155.49,-566.88"/>
<polygon fill="#63b8ff" stroke="#63b8ff" points="156.6,-570.2 164.65,-563.32 154.06,-563.68 156.6,-570.2"/>
</a>
</g>
</g>
<!-- Node32 -->
<g id="Node000032" class="node">
<title>Node32</title>
<g id="a_Node000032"><a xlink:href="group__ssd1315__base__driver.html#ga94d0f25da359df733f4a32371f1cf9d0" target="_top" xlink:title="set the fade blinking mode">
<polygon fill="white" stroke="#666666" points="298.25,-522 135.25,-522 135.25,-502 298.25,-502 298.25,-522"/>
<text xml:space="preserve" text-anchor="middle" x="216.75" y="-508.5" font-family="Helvetica,sans-Serif" font-size="10.00">ssd1315_set_fade_blinking_mode</text>
</a>
</g>
</g>
<!-- Node1&#45;&gt;Node32 -->
<g id="edge31_Node000001_Node000032" class="edge">
<title>Node1&#45;&gt;Node32</title>
<g id="a_edge31_Node000001_Node000032"><a xlink:title=" ">
<path fill="none" stroke="#63b8ff" d="M51.27,-934.55C55.1,-876.23 76.63,-591.42 135.25,-531 135.87,-530.36 136.5,-529.74 137.16,-529.15"/>
<polygon fill="#63b8ff" stroke="#63b8ff" points="139.18,-532 145.21,-523.28 135.06,-526.34 139.18,-532"/>
</a>
</g>
</g>
<!-- Node33 -->
<g id="Node000033" class="node">
<title>Node33</title>
<g id="a_Node000033"><a xlink:href="group__ssd1315__base__driver.html#ga97faae24f91640a1e41f65b6ef3bc054" target="_top" xlink:title="set the high column start address">
<polygon fill="white" stroke="#666666" points="282.5,-484 151,-484 151,-452 282.5,-452 282.5,-484"/>
<text xml:space="preserve" text-anchor="start" x="159" y="-470.5" font-family="Helvetica,sans-Serif" font-size="10.00">ssd1315_set_high_column</text>
<text xml:space="preserve" text-anchor="middle" x="216.75" y="-458.5" font-family="Helvetica,sans-Serif" font-size="10.00">_start_address</text>
</a>
</g>
</g>
<!-- Node1&#45;&gt;Node33 -->
<g id="edge32_Node000001_Node000033" class="edge">
<title>Node1&#45;&gt;Node33</title>
<g id="a_edge32_Node000001_Node000033"><a xlink:title=" ">
<path fill="none" stroke="#63b8ff" d="M51.13,-934.88C54.37,-874.48 73.94,-561.87 135.25,-493 137.17,-490.85 139.26,-488.88 141.5,-487.08"/>
<polygon fill="#63b8ff" stroke="#63b8ff" points="143.11,-490.21 149.5,-481.77 139.23,-484.38 143.11,-490.21"/>
</a>
</g>
</g>
<!-- Node34 -->
<g id="Node000034" class="node">
<title>Node34</title>
<g id="a_Node000034"><a xlink:href="group__ssd1315__base__driver.html#ga57b7d8deb89c7281b1eab63f54e47b05" target="_top" xlink:title="set the chip interface">
<polygon fill="white" stroke="#666666" points="273.88,-434 159.62,-434 159.62,-414 273.88,-414 273.88,-434"/>
<text xml:space="preserve" text-anchor="middle" x="216.75" y="-420.5" font-family="Helvetica,sans-Serif" font-size="10.00">ssd1315_set_interface</text>
</a>
</g>
</g>
<!-- Node1&#45;&gt;Node34 -->
<g id="edge33_Node000001_Node000034" class="edge">
<title>Node1&#45;&gt;Node34</title>
<g id="a_edge33_Node000001_Node000034"><a xlink:title=" ">
<path fill="none" stroke="#63b8ff" d="M50.87,-934.56C52.6,-869.31 65.14,-517.8 135.25,-443 139.2,-438.79 143.89,-435.43 149,-432.76"/>
<polygon fill="#63b8ff" stroke="#63b8ff" points="150.01,-436.14 157.86,-429.02 147.28,-429.69 150.01,-436.14"/>
</a>
</g>
</g>
<!-- Node35 -->
<g id="Node000035" class="node">
<title>Node35</title>
<g id="a_Node000035"><a xlink:href="group__ssd1315__base__driver.html#ga628b2296840b237235088175f4f60e20" target="_top" xlink:title="set iref">
<polygon fill="white" stroke="#666666" points="261.88,-396 171.62,-396 171.62,-376 261.88,-376 261.88,-396"/>
<text xml:space="preserve" text-anchor="middle" x="216.75" y="-382.5" font-family="Helvetica,sans-Serif" font-size="10.00">ssd1315_set_iref</text>
</a>
</g>
</g>
<!-- Node1&#45;&gt;Node35 -->
<g id="edge34_Node000001_Node000035" class="edge">
<title>Node1&#45;&gt;Node35</title>
<g id="a_edge34_Node000001_Node000035"><a xlink:title=" ">
<path fill="none" stroke="#63b8ff" d="M50.73,-934.67C51.65,-866.9 60.12,-486.1 135.25,-405 141.91,-397.81 150.75,-393.1 160.12,-390.06"/>
<polygon fill="#63b8ff" stroke="#63b8ff" points="160.99,-393.46 169.81,-387.59 159.26,-386.67 160.99,-393.46"/>
</a>
</g>
</g>
<!-- Node36 -->
<g id="Node000036" class="node">
<title>Node36</title>
<g id="a_Node000036"><a xlink:href="group__ssd1315__base__driver.html#ga9d3d028106541d563ae3a43f5064c9f4" target="_top" xlink:title="set the low column start address">
<polygon fill="white" stroke="#666666" points="281,-358 152.5,-358 152.5,-326 281,-326 281,-358"/>
<text xml:space="preserve" text-anchor="start" x="160.5" y="-344.5" font-family="Helvetica,sans-Serif" font-size="10.00">ssd1315_set_low_column</text>
<text xml:space="preserve" text-anchor="middle" x="216.75" y="-332.5" font-family="Helvetica,sans-Serif" font-size="10.00">_start_address</text>
</a>
</g>
</g>
<!-- Node1&#45;&gt;Node36 -->
<g id="edge35_Node000001_Node000036" class="edge">
<title>Node1&#45;&gt;Node36</title>
<g id="a_edge35_Node000001_Node000036"><a xlink:title=" ">
<path fill="none" stroke="#63b8ff" d="M50.68,-934.93C51.29,-865.42 58.13,-457.18 135.25,-367 137.43,-364.45 139.88,-362.15 142.51,-360.08"/>
<polygon fill="#63b8ff" stroke="#63b8ff" points="144.32,-363.08 150.84,-354.73 140.53,-357.19 144.32,-363.08"/>
</a>
</g>
</g>
<!-- Node37 -->
<g id="Node000037" class="node">
<title>Node37</title>
<g id="a_Node000037"><a xlink:href="group__ssd1315__base__driver.html#ga30ca41dbaf656cf85e96fdddf7c2875e" target="_top" xlink:title="set the memory addressing mode">
<polygon fill="white" stroke="#666666" points="272.75,-308 160.75,-308 160.75,-276 272.75,-276 272.75,-308"/>
<text xml:space="preserve" text-anchor="start" x="168.75" y="-294.5" font-family="Helvetica,sans-Serif" font-size="10.00">ssd1315_set_memory</text>
<text xml:space="preserve" text-anchor="middle" x="216.75" y="-282.5" font-family="Helvetica,sans-Serif" font-size="10.00">_addressing_mode</text>
</a>
</g>
</g>
<!-- Node1&#45;&gt;Node37 -->
<g id="edge36_Node000001_Node000037" class="edge">
<title>Node1&#45;&gt;Node37</title>
<g id="a_edge36_Node000001_Node000037"><a xlink:title=" ">
<path fill="none" stroke="#63b8ff" d="M50.55,-934.54C50.25,-860.49 51.97,-415.51 135.25,-317 139.49,-311.99 144.71,-307.97 150.44,-304.74"/>
<polygon fill="#63b8ff" stroke="#63b8ff" points="151.55,-308.08 159.12,-300.67 148.58,-301.75 151.55,-308.08"/>
</a>
</g>
</g>
<!-- Node38 -->
<g id="Node000038" class="node">
<title>Node38</title>
<g id="a_Node000038"><a xlink:href="group__ssd1315__base__driver.html#ga471ce39e9ddc28bf3017f21b41825aa5" target="_top" xlink:title="set the multiplex ratio">
<polygon fill="white" stroke="#666666" points="274.62,-258 158.88,-258 158.88,-226 274.62,-226 274.62,-258"/>
<text xml:space="preserve" text-anchor="start" x="166.88" y="-244.5" font-family="Helvetica,sans-Serif" font-size="10.00">ssd1315_set_multiplex</text>
<text xml:space="preserve" text-anchor="middle" x="216.75" y="-232.5" font-family="Helvetica,sans-Serif" font-size="10.00">_ratio</text>
</a>
</g>
</g>
<!-- Node1&#45;&gt;Node38 -->
<g id="edge37_Node000001_Node000038" class="edge">
<title>Node1&#45;&gt;Node38</title>
<g id="a_edge37_Node000001_Node000038"><a xlink:title=" ">
<path fill="none" stroke="#63b8ff" d="M50.44,-934.71C49.28,-857.92 45.6,-374.11 135.25,-267 138.97,-262.56 143.47,-258.89 148.41,-255.86"/>
<polygon fill="#63b8ff" stroke="#63b8ff" points="149.7,-259.13 157.03,-251.49 146.53,-252.89 149.7,-259.13"/>
</a>
</g>
</g>
<!-- Node39 -->
<g id="Node000039" class="node">
<title>Node39</title>
<g id="a_Node000039"><a xlink:href="group__ssd1315__base__driver.html#ga8ce168fc3a795ae6185de5294c0f68d7" target="_top" xlink:title="set the page address range">
<polygon fill="white" stroke="#666666" points="285.5,-208 148,-208 148,-176 285.5,-176 285.5,-208"/>
<text xml:space="preserve" text-anchor="start" x="156" y="-194.5" font-family="Helvetica,sans-Serif" font-size="10.00">ssd1315_set_page_address</text>
<text xml:space="preserve" text-anchor="middle" x="216.75" y="-182.5" font-family="Helvetica,sans-Serif" font-size="10.00">_range</text>
</a>
</g>
</g>
<!-- Node1&#45;&gt;Node39 -->
<g id="edge38_Node000001_Node000039" class="edge">
<title>Node1&#45;&gt;Node39</title>
<g id="a_edge38_Node000001_Node000039"><a xlink:title=" ">
<path fill="none" stroke="#63b8ff" d="M51.16,-934.52C55.57,-849.56 87.1,-275.01 135.25,-217 136.36,-215.66 137.54,-214.4 138.78,-213.2"/>
<polygon fill="#63b8ff" stroke="#63b8ff" points="140.83,-216.03 146.58,-207.13 136.53,-210.51 140.83,-216.03"/>
</a>
</g>
</g>
<!-- Node40 -->
<g id="Node000040" class="node">
<title>Node40</title>
<g id="a_Node000040"><a xlink:href="group__ssd1315__base__driver.html#ga7105a5fda6c2dcb7e7a8b2716e6a0fc0" target="_top" xlink:title="set the pre charge period">
<polygon fill="white" stroke="#666666" points="276.5,-158 157,-158 157,-126 276.5,-126 276.5,-158"/>
<text xml:space="preserve" text-anchor="start" x="165" y="-144.5" font-family="Helvetica,sans-Serif" font-size="10.00">ssd1315_set_precharge</text>
<text xml:space="preserve" text-anchor="middle" x="216.75" y="-132.5" font-family="Helvetica,sans-Serif" font-size="10.00">_period</text>
</a>
</g>
</g>
<!-- Node1&#45;&gt;Node40 -->
<g id="edge39_Node000001_Node000040" class="edge">
<title>Node1&#45;&gt;Node40</title>
<g id="a_edge39_Node000001_Node000040"><a xlink:title=" ">
<path fill="none" stroke="#63b8ff" d="M51.07,-934.65C54.94,-846.92 83.91,-229.33 135.25,-167 138.53,-163.02 142.44,-159.66 146.73,-156.82"/>
<polygon fill="#63b8ff" stroke="#63b8ff" points="148.22,-160 155.33,-152.15 144.88,-153.85 148.22,-160"/>
</a>
</g>
</g>
<!-- Node41 -->
<g id="Node000041" class="node">
<title>Node41</title>
<g id="a_Node000041"><a xlink:href="group__ssd1315__base__driver.html#ga7539633c145849b965d6b17820f4afbf" target="_top" xlink:title="set the scan direction">
<polygon fill="white" stroke="#666666" points="286.62,-108 146.88,-108 146.88,-88 286.62,-88 286.62,-108"/>
<text xml:space="preserve" text-anchor="middle" x="216.75" y="-94.5" font-family="Helvetica,sans-Serif" font-size="10.00">ssd1315_set_scan_direction</text>
</a>
</g>
</g>
<!-- Node1&#45;&gt;Node41 -->
<g id="edge40_Node000001_Node000041" class="edge">
<title>Node1&#45;&gt;Node41</title>
<g id="a_edge40_Node000001_Node000041"><a xlink:title=" ">
<path fill="none" stroke="#63b8ff" d="M50.97,-934.54C54.08,-843.13 78.47,-181.68 135.25,-117 135.95,-116.2 136.69,-115.43 137.44,-114.68"/>
<polygon fill="#63b8ff" stroke="#63b8ff" points="139.4,-117.59 145.2,-108.73 135.14,-112.04 139.4,-117.59"/>
</a>
</g>
</g>
<!-- Node42 -->
<g id="Node000042" class="node">
<title>Node42</title>
<g id="a_Node000042"><a xlink:href="group__ssd1315__base__driver.html#ga5133427cea944afe645b01ffadbfbaa4" target="_top" xlink:title="set the segment remap">
<polygon fill="white" stroke="#666666" points="273.88,-70 159.62,-70 159.62,-38 273.88,-38 273.88,-70"/>
<text xml:space="preserve" text-anchor="start" x="167.62" y="-56.5" font-family="Helvetica,sans-Serif" font-size="10.00">ssd1315_set_segment</text>
<text xml:space="preserve" text-anchor="middle" x="216.75" y="-44.5" font-family="Helvetica,sans-Serif" font-size="10.00">_remap</text>
</a>
</g>
</g>
<!-- Node1&#45;&gt;Node42 -->
<g id="edge41_Node000001_Node000042" class="edge">
<title>Node1&#45;&gt;Node42</title>
<g id="a_edge41_Node000001_Node000042"><a xlink:title=" ">
<path fill="none" stroke="#63b8ff" d="M50.95,-934.69C53.97,-841.65 78.31,-148.91 135.25,-79 139.18,-74.18 144.02,-70.27 149.37,-67.1"/>
<polygon fill="#63b8ff" stroke="#63b8ff" points="150.64,-70.37 158.08,-62.83 147.56,-64.09 150.64,-70.37"/>
</a>
</g>
</g>
<!-- Node43 -->
<g id="Node000043" class="node">
<title>Node43</title>
<g id="a_Node000043"><a xlink:href="group__ssd1315__base__driver.html#ga2eb68cd55dac6df0da6f7248793dcb2c" target="_top" xlink:title="set the display zoom in">
<polygon fill="white" stroke="#666666" points="273.5,-20 160,-20 160,0 273.5,0 273.5,-20"/>
<text xml:space="preserve" text-anchor="middle" x="216.75" y="-6.5" font-family="Helvetica,sans-Serif" font-size="10.00">ssd1315_set_zoom_in</text>
</a>
</g>
</g>
<!-- Node1&#45;&gt;Node43 -->
<g id="edge42_Node000001_Node000043" class="edge">
<title>Node1&#45;&gt;Node43</title>
<g id="a_edge42_Node000001_Node000043"><a xlink:title=" ">
<path fill="none" stroke="#63b8ff" d="M50.86,-934.67C53.14,-838.49 72.58,-101.09 135.25,-29 139.15,-24.51 143.9,-20.97 149.12,-18.2"/>
<polygon fill="#63b8ff" stroke="#63b8ff" points="150.39,-21.47 158.24,-14.36 147.67,-15.02 150.39,-21.47"/>
</a>
</g>
</g>
</g>
</svg>
