<?xml version="1.0" encoding="UTF-8" standalone="no"?>
<!DOCTYPE svg PUBLIC "-//W3C//DTD SVG 1.1//EN"
 "http://www.w3.org/Graphics/SVG/1.1/DTD/svg11.dtd">
<!-- Generated by graphviz version 13.1.0 (20250701.0955)
 -->
<!-- Title: ssd1315_advance_init Pages: 1 -->
<svg width="320pt" height="1898pt"
 viewBox="0.00 0.00 320.00 1898.00" xmlns="http://www.w3.org/2000/svg" xmlns:xlink="http://www.w3.org/1999/xlink">
<g id="graph0" class="graph" transform="scale(1 1) rotate(0) translate(4 1894)">
<title>ssd1315_advance_init</title>
<!-- Node1 -->
<g id="Node000001" class="node">
<title>Node1</title>
<g id="a_Node000001"><a xlink:title="advance example init">
<polygon fill="#999999" stroke="#666666" points="112.75,-955 0,-955 0,-935 112.75,-935 112.75,-955"/>
<text xml:space="preserve" text-anchor="middle" x="56.38" y="-941.5" font-family="Helvetica,sans-Serif" font-size="10.00">ssd1315_advance_init</text>
</a>
</g>
</g>
<!-- Node2 -->
<g id="Node000002" class="node">
<title>Node2</title>
<g id="a_Node000002"><a xlink:href="group__ssd1315__base__driver.html#ga02c894191a43af42543d4169a0315f61" target="_top" xlink:title="clear the screen">
<polygon fill="white" stroke="#666666" points="269.75,-1890 190.75,-1890 190.75,-1870 269.75,-1870 269.75,-1890"/>
<text xml:space="preserve" text-anchor="middle" x="230.25" y="-1876.5" font-family="Helvetica,sans-Serif" font-size="10.00">ssd1315_clear</text>
</a>
</g>
</g>
<!-- Node1&#45;&gt;Node2 -->
<g id="edge1_Node000001_Node000002" class="edge">
<title>Node1&#45;&gt;Node2</title>
<g id="a_edge1_Node000001_Node000002"><a xlink:title=" ">
<path fill="none" stroke="#63b8ff" d="M57.69,-955.33C60.7,-1051.54 85.78,-1789.09 148.75,-1861 156.56,-1869.92 167.72,-1875.07 179.24,-1877.94"/>
<polygon fill="#63b8ff" stroke="#63b8ff" points="178.34,-1881.33 188.82,-1879.76 179.65,-1874.45 178.34,-1881.33"/>
</a>
</g>
</g>
<!-- Node3 -->
<g id="Node000003" class="node">
<title>Node3</title>
<g id="a_Node000003"><a xlink:href="group__ssd1315__base__driver.html#ga403448762214b7388105281fa3a7f5f2" target="_top" xlink:title="deactivate the scroll">
<polygon fill="white" stroke="#666666" points="281.75,-1852 178.75,-1852 178.75,-1820 281.75,-1820 281.75,-1852"/>
<text xml:space="preserve" text-anchor="start" x="186.75" y="-1838.5" font-family="Helvetica,sans-Serif" font-size="10.00">ssd1315_deactivate</text>
<text xml:space="preserve" text-anchor="middle" x="230.25" y="-1826.5" font-family="Helvetica,sans-Serif" font-size="10.00">_scroll</text>
</a>
</g>
</g>
<!-- Node1&#45;&gt;Node3 -->
<g id="edge2_Node000001_Node000003" class="edge">
<title>Node1&#45;&gt;Node3</title>
<g id="a_edge2_Node000001_Node000003"><a xlink:title=" ">
<path fill="none" stroke="#63b8ff" d="M57.78,-955.32C61.56,-1048.38 91.49,-1741.26 148.75,-1811 153.92,-1817.3 160.65,-1822.04 168.02,-1825.6"/>
<polygon fill="#63b8ff" stroke="#63b8ff" points="166.38,-1828.72 176.97,-1829.2 169,-1822.22 166.38,-1828.72"/>
</a>
</g>
</g>
<!-- Node4 -->
<g id="Node000004" class="node">
<title>Node4</title>
<g id="a_Node000004"><a xlink:href="group__ssd1315__base__driver.html#gadfbdb7689e972075f4d9eb79936e9c59" target="_top" xlink:title="close the chip">
<polygon fill="white" stroke="#666666" points="270.88,-1802 189.62,-1802 189.62,-1782 270.88,-1782 270.88,-1802"/>
<text xml:space="preserve" text-anchor="middle" x="230.25" y="-1788.5" font-family="Helvetica,sans-Serif" font-size="10.00">ssd1315_deinit</text>
</a>
</g>
</g>
<!-- Node1&#45;&gt;Node4 -->
<g id="edge3_Node000001_Node000004" class="edge">
<title>Node1&#45;&gt;Node4</title>
<g id="a_edge3_Node000001_Node000004"><a xlink:title=" ">
<path fill="none" stroke="#63b8ff" d="M57.81,-955.46C61.69,-1046.89 91.66,-1708.49 148.75,-1773 156.39,-1781.63 167.15,-1786.72 178.32,-1789.63"/>
<polygon fill="#63b8ff" stroke="#63b8ff" points="177.56,-1793.05 188.05,-1791.58 178.93,-1786.18 177.56,-1793.05"/>
</a>
</g>
</g>
<!-- Node5 -->
<g id="Node000005" class="node">
<title>Node5</title>
<g id="a_Node000005"><a xlink:href="group__ssd1315__base__driver.html#ga3f71eec06d0a72c1a22df48fde47becb" target="_top" xlink:title="initialize the chip">
<polygon fill="white" stroke="#666666" points="265.62,-1764 194.88,-1764 194.88,-1744 265.62,-1744 265.62,-1764"/>
<text xml:space="preserve" text-anchor="middle" x="230.25" y="-1750.5" font-family="Helvetica,sans-Serif" font-size="10.00">ssd1315_init</text>
</a>
</g>
</g>
<!-- Node1&#45;&gt;Node5 -->
<g id="edge4_Node000001_Node000005" class="edge">
<title>Node1&#45;&gt;Node5</title>
<g id="a_edge4_Node000001_Node000005"><a xlink:title=" ">
<path fill="none" stroke="#63b8ff" d="M57.86,-955.26C62.09,-1043.56 94.15,-1673.62 148.75,-1735 157.53,-1744.87 170.41,-1750.1 183.3,-1752.75"/>
<polygon fill="#63b8ff" stroke="#63b8ff" points="182.61,-1756.19 193.02,-1754.24 183.67,-1749.27 182.61,-1756.19"/>
</a>
</g>
</g>
<!-- Node6 -->
<g id="Node000006" class="node">
<title>Node6</title>
<g id="a_Node000006"><a xlink:href="group__ssd1315__interface__driver.html#ga66cfbd17e1fd021e2cf6dfccbdf8724f" target="_top" xlink:title="interface print format data">
<polygon fill="white" stroke="#666666" points="293.75,-1726 166.75,-1726 166.75,-1694 293.75,-1694 293.75,-1726"/>
<text xml:space="preserve" text-anchor="start" x="174.75" y="-1712.5" font-family="Helvetica,sans-Serif" font-size="10.00">ssd1315_interface_debug</text>
<text xml:space="preserve" text-anchor="middle" x="230.25" y="-1700.5" font-family="Helvetica,sans-Serif" font-size="10.00">_print</text>
</a>
</g>
</g>
<!-- Node1&#45;&gt;Node6 -->
<g id="edge5_Node000001_Node000006" class="edge">
<title>Node1&#45;&gt;Node6</title>
<g id="a_edge5_Node000001_Node000006"><a xlink:title=" ">
<path fill="none" stroke="#63b8ff" d="M57.17,-955.44C55.8,-1036.67 50.68,-1567.68 148.75,-1685 151.14,-1687.86 153.86,-1690.4 156.81,-1692.66"/>
<polygon fill="#63b8ff" stroke="#63b8ff" points="154.66,-1695.44 164.99,-1697.79 158.38,-1689.51 154.66,-1695.44"/>
</a>
</g>
</g>
<!-- Node7 -->
<g id="Node000007" class="node">
<title>Node7</title>
<g id="a_Node000007"><a xlink:href="group__ssd1315__interface__driver.html#ga948728bbc3384f6cfdcaea461de0d5a2" target="_top" xlink:title="interface delay ms">
<polygon fill="white" stroke="#666666" points="301.62,-1676 158.88,-1676 158.88,-1656 301.62,-1656 301.62,-1676"/>
<text xml:space="preserve" text-anchor="middle" x="230.25" y="-1662.5" font-family="Helvetica,sans-Serif" font-size="10.00">ssd1315_interface_delay_ms</text>
</a>
</g>
</g>
<!-- Node1&#45;&gt;Node7 -->
<g id="edge6_Node000001_Node000007" class="edge">
<title>Node1&#45;&gt;Node7</title>
<g id="a_edge6_Node000001_Node000007"><a xlink:title=" ">
<path fill="none" stroke="#63b8ff" d="M57.18,-955.46C55.9,-1034.65 51.68,-1539.45 148.75,-1647 149.23,-1647.53 149.72,-1648.05 150.23,-1648.56"/>
<polygon fill="#63b8ff" stroke="#63b8ff" points="148.06,-1651.31 158.09,-1654.72 152.38,-1645.8 148.06,-1651.31"/>
</a>
</g>
</g>
<!-- Node8 -->
<g id="Node000008" class="node">
<title>Node8</title>
<g id="a_Node000008"><a xlink:href="group__ssd1315__interface__driver.html#ga23adc6be090cbb503e27a70591c0b0d3" target="_top" xlink:title="interface iic bus deinit">
<polygon fill="white" stroke="#666666" points="285.5,-1638 175,-1638 175,-1606 285.5,-1606 285.5,-1638"/>
<text xml:space="preserve" text-anchor="start" x="183" y="-1624.5" font-family="Helvetica,sans-Serif" font-size="10.00">ssd1315_interface_iic</text>
<text xml:space="preserve" text-anchor="middle" x="230.25" y="-1612.5" font-family="Helvetica,sans-Serif" font-size="10.00">_deinit</text>
</a>
</g>
</g>
<!-- Node1&#45;&gt;Node8 -->
<g id="edge7_Node000001_Node000008" class="edge">
<title>Node1&#45;&gt;Node8</title>
<g id="a_edge7_Node000001_Node000008"><a xlink:title=" ">
<path fill="none" stroke="#63b8ff" d="M57.36,-955.38C57.48,-1030.79 61.77,-1494.67 148.75,-1597 153.12,-1602.14 158.53,-1606.24 164.46,-1609.51"/>
<polygon fill="#63b8ff" stroke="#63b8ff" points="162.92,-1612.66 173.47,-1613.63 165.83,-1606.29 162.92,-1612.66"/>
</a>
</g>
</g>
<!-- Node9 -->
<g id="Node000009" class="node">
<title>Node9</title>
<g id="a_Node000009"><a xlink:href="group__ssd1315__interface__driver.html#ga71e5d8ea634380564dfeaed763d6ef9a" target="_top" xlink:title="interface iic bus init">
<polygon fill="white" stroke="#666666" points="294.5,-1588 166,-1588 166,-1568 294.5,-1568 294.5,-1588"/>
<text xml:space="preserve" text-anchor="middle" x="230.25" y="-1574.5" font-family="Helvetica,sans-Serif" font-size="10.00">ssd1315_interface_iic_init</text>
</a>
</g>
</g>
<!-- Node1&#45;&gt;Node9 -->
<g id="edge8_Node000001_Node000009" class="edge">
<title>Node1&#45;&gt;Node9</title>
<g id="a_edge8_Node000001_Node000009"><a xlink:title=" ">
<path fill="none" stroke="#63b8ff" d="M57.39,-955.3C57.71,-1028.18 63.23,-1465.97 148.75,-1559 150.91,-1561.35 153.3,-1563.43 155.86,-1565.28"/>
<polygon fill="#63b8ff" stroke="#63b8ff" points="154.08,-1568.29 164.5,-1570.23 157.56,-1562.22 154.08,-1568.29"/>
</a>
</g>
</g>
<!-- Node10 -->
<g id="Node000010" class="node">
<title>Node10</title>
<g id="a_Node000010"><a xlink:href="group__ssd1315__interface__driver.html#gaf1c97a64d7174bb06ebe513a4ade2149" target="_top" xlink:title="interface iic bus write">
<polygon fill="white" stroke="#666666" points="285.5,-1550 175,-1550 175,-1518 285.5,-1518 285.5,-1550"/>
<text xml:space="preserve" text-anchor="start" x="183" y="-1536.5" font-family="Helvetica,sans-Serif" font-size="10.00">ssd1315_interface_iic</text>
<text xml:space="preserve" text-anchor="middle" x="230.25" y="-1524.5" font-family="Helvetica,sans-Serif" font-size="10.00">_write</text>
</a>
</g>
</g>
<!-- Node1&#45;&gt;Node10 -->
<g id="edge9_Node000001_Node000010" class="edge">
<title>Node1&#45;&gt;Node10</title>
<g id="a_edge9_Node000001_Node000010"><a xlink:title=" ">
<path fill="none" stroke="#63b8ff" d="M57.61,-955.28C59.38,-1024.41 72.81,-1421.57 148.75,-1509 153.11,-1514.03 158.47,-1518.05 164.33,-1521.28"/>
<polygon fill="#63b8ff" stroke="#63b8ff" points="162.64,-1524.36 173.19,-1525.36 165.57,-1518 162.64,-1524.36"/>
</a>
</g>
</g>
<!-- Node11 -->
<g id="Node000011" class="node">
<title>Node11</title>
<g id="a_Node000011"><a xlink:href="group__ssd1315__interface__driver.html#ga489faee0b7478e175d187364383cf0d9" target="_top" xlink:title="interface reset gpio deinit">
<polygon fill="white" stroke="#666666" points="291.5,-1500 169,-1500 169,-1468 291.5,-1468 291.5,-1500"/>
<text xml:space="preserve" text-anchor="start" x="177" y="-1486.5" font-family="Helvetica,sans-Serif" font-size="10.00">ssd1315_interface_reset</text>
<text xml:space="preserve" text-anchor="middle" x="230.25" y="-1474.5" font-family="Helvetica,sans-Serif" font-size="10.00">_gpio_deinit</text>
</a>
</g>
</g>
<!-- Node1&#45;&gt;Node11 -->
<g id="edge10_Node000001_Node000011" class="edge">
<title>Node1&#45;&gt;Node11</title>
<g id="a_edge10_Node000001_Node000011"><a xlink:title=" ">
<path fill="none" stroke="#63b8ff" d="M57.78,-955.2C60.58,-1020.53 79.05,-1379.98 148.75,-1459 151.71,-1462.36 155.12,-1465.28 158.82,-1467.8"/>
<polygon fill="#63b8ff" stroke="#63b8ff" points="156.81,-1470.68 167.23,-1472.57 160.26,-1464.59 156.81,-1470.68"/>
</a>
</g>
</g>
<!-- Node12 -->
<g id="Node000012" class="node">
<title>Node12</title>
<g id="a_Node000012"><a xlink:href="group__ssd1315__interface__driver.html#ga3d27807f31f7c98bf99d5198ba861be2" target="_top" xlink:title="interface reset gpio init">
<polygon fill="white" stroke="#666666" points="291.5,-1450 169,-1450 169,-1418 291.5,-1418 291.5,-1450"/>
<text xml:space="preserve" text-anchor="start" x="177" y="-1436.5" font-family="Helvetica,sans-Serif" font-size="10.00">ssd1315_interface_reset</text>
<text xml:space="preserve" text-anchor="middle" x="230.25" y="-1424.5" font-family="Helvetica,sans-Serif" font-size="10.00">_gpio_init</text>
</a>
</g>
</g>
<!-- Node1&#45;&gt;Node12 -->
<g id="edge11_Node000001_Node000012" class="edge">
<title>Node1&#45;&gt;Node12</title>
<g id="a_edge11_Node000001_Node000012"><a xlink:title=" ">
<path fill="none" stroke="#63b8ff" d="M58.01,-955.39C61.97,-1017.42 85.37,-1338.47 148.75,-1409 151.75,-1412.33 155.18,-1415.23 158.9,-1417.74"/>
<polygon fill="#63b8ff" stroke="#63b8ff" points="156.9,-1420.63 167.33,-1422.48 160.33,-1414.53 156.9,-1420.63"/>
</a>
</g>
</g>
<!-- Node13 -->
<g id="Node000013" class="node">
<title>Node13</title>
<g id="a_Node000013"><a xlink:href="group__ssd1315__interface__driver.html#ga89586a182332d1bdc88fd82662dcb301" target="_top" xlink:title="interface reset gpio write">
<polygon fill="white" stroke="#666666" points="291.5,-1400 169,-1400 169,-1368 291.5,-1368 291.5,-1400"/>
<text xml:space="preserve" text-anchor="start" x="177" y="-1386.5" font-family="Helvetica,sans-Serif" font-size="10.00">ssd1315_interface_reset</text>
<text xml:space="preserve" text-anchor="middle" x="230.25" y="-1374.5" font-family="Helvetica,sans-Serif" font-size="10.00">_gpio_write</text>
</a>
</g>
</g>
<!-- Node1&#45;&gt;Node13 -->
<g id="edge12_Node000001_Node000013" class="edge">
<title>Node1&#45;&gt;Node13</title>
<g id="a_edge12_Node000001_Node000013"><a xlink:title=" ">
<path fill="none" stroke="#63b8ff" d="M58.27,-955.39C63.48,-1013.4 91.58,-1296.82 148.75,-1359 151.78,-1362.3 155.24,-1365.17 158.98,-1367.66"/>
<polygon fill="#63b8ff" stroke="#63b8ff" points="157.02,-1370.57 167.45,-1372.38 160.42,-1364.45 157.02,-1370.57"/>
</a>
</g>
</g>
<!-- Node14 -->
<g id="Node000014" class="node">
<title>Node14</title>
<g id="a_Node000014"><a xlink:href="group__ssd1315__interface__driver.html#gae9d02b76e21c2026fb5dc6d04a969fcc" target="_top" xlink:title="interface command &amp;&amp; data gpio deinit">
<polygon fill="white" stroke="#666666" points="288.12,-1350 172.38,-1350 172.38,-1318 288.12,-1318 288.12,-1350"/>
<text xml:space="preserve" text-anchor="start" x="180.38" y="-1336.5" font-family="Helvetica,sans-Serif" font-size="10.00">ssd1315_interface_spi</text>
<text xml:space="preserve" text-anchor="middle" x="230.25" y="-1324.5" font-family="Helvetica,sans-Serif" font-size="10.00">_cmd_data_gpio_deinit</text>
</a>
</g>
</g>
<!-- Node1&#45;&gt;Node14 -->
<g id="edge13_Node000001_Node000014" class="edge">
<title>Node1&#45;&gt;Node14</title>
<g id="a_edge13_Node000001_Node000014"><a xlink:title=" ">
<path fill="none" stroke="#63b8ff" d="M58.58,-955.17C65.1,-1008.47 97.7,-1255.05 148.75,-1309 152.67,-1313.15 157.27,-1316.61 162.24,-1319.5"/>
<polygon fill="#63b8ff" stroke="#63b8ff" points="160.31,-1322.45 170.83,-1323.72 163.4,-1316.17 160.31,-1322.45"/>
</a>
</g>
</g>
<!-- Node15 -->
<g id="Node000015" class="node">
<title>Node15</title>
<g id="a_Node000015"><a xlink:href="group__ssd1315__interface__driver.html#gad0dc59c2b1abd75fadf17498bb1142d2" target="_top" xlink:title="interface command &amp;&amp; data gpio init">
<polygon fill="white" stroke="#666666" points="287,-1300 173.5,-1300 173.5,-1268 287,-1268 287,-1300"/>
<text xml:space="preserve" text-anchor="start" x="181.5" y="-1286.5" font-family="Helvetica,sans-Serif" font-size="10.00">ssd1315_interface_spi</text>
<text xml:space="preserve" text-anchor="middle" x="230.25" y="-1274.5" font-family="Helvetica,sans-Serif" font-size="10.00">_cmd_data_gpio_init</text>
</a>
</g>
</g>
<!-- Node1&#45;&gt;Node15 -->
<g id="edge14_Node000001_Node000015" class="edge">
<title>Node1&#45;&gt;Node15</title>
<g id="a_edge14_Node000001_Node000015"><a xlink:title=" ">
<path fill="none" stroke="#63b8ff" d="M57.11,-955.39C56.57,-998.98 60.43,-1169.08 148.75,-1259 152.87,-1263.2 157.69,-1266.7 162.88,-1269.61"/>
<polygon fill="#63b8ff" stroke="#63b8ff" points="161.32,-1272.74 171.86,-1273.87 164.32,-1266.42 161.32,-1272.74"/>
</a>
</g>
</g>
<!-- Node16 -->
<g id="Node000016" class="node">
<title>Node16</title>
<g id="a_Node000016"><a xlink:href="group__ssd1315__interface__driver.html#ga303da6568182e47ae57182556317ca34" target="_top" xlink:title="interface command &amp;&amp; data gpio write">
<polygon fill="white" stroke="#666666" points="287,-1250 173.5,-1250 173.5,-1218 287,-1218 287,-1250"/>
<text xml:space="preserve" text-anchor="start" x="181.5" y="-1236.5" font-family="Helvetica,sans-Serif" font-size="10.00">ssd1315_interface_spi</text>
<text xml:space="preserve" text-anchor="middle" x="230.25" y="-1224.5" font-family="Helvetica,sans-Serif" font-size="10.00">_cmd_data_gpio_write</text>
</a>
</g>
</g>
<!-- Node1&#45;&gt;Node16 -->
<g id="edge15_Node000001_Node000016" class="edge">
<title>Node1&#45;&gt;Node16</title>
<g id="a_edge15_Node000001_Node000016"><a xlink:title=" ">
<path fill="none" stroke="#63b8ff" d="M57.77,-955.32C59.82,-994.44 72.45,-1135.11 148.75,-1209 152.91,-1213.03 157.72,-1216.42 162.86,-1219.25"/>
<polygon fill="#63b8ff" stroke="#63b8ff" points="161.19,-1222.33 171.73,-1223.42 164.17,-1216 161.19,-1222.33"/>
</a>
</g>
</g>
<!-- Node17 -->
<g id="Node000017" class="node">
<title>Node17</title>
<g id="a_Node000017"><a xlink:href="group__ssd1315__interface__driver.html#ga6ea74dc116a49af50fc7de1b981e354a" target="_top" xlink:title="interface spi bus deinit">
<polygon fill="white" stroke="#666666" points="287,-1200 173.5,-1200 173.5,-1168 287,-1168 287,-1200"/>
<text xml:space="preserve" text-anchor="start" x="181.5" y="-1186.5" font-family="Helvetica,sans-Serif" font-size="10.00">ssd1315_interface_spi</text>
<text xml:space="preserve" text-anchor="middle" x="230.25" y="-1174.5" font-family="Helvetica,sans-Serif" font-size="10.00">_deinit</text>
</a>
</g>
</g>
<!-- Node1&#45;&gt;Node17 -->
<g id="edge16_Node000001_Node000017" class="edge">
<title>Node1&#45;&gt;Node17</title>
<g id="a_edge16_Node000001_Node000017"><a xlink:title=" ">
<path fill="none" stroke="#63b8ff" d="M58.69,-955.23C63.65,-989.42 84.27,-1100.81 148.75,-1159 152.99,-1162.82 157.8,-1166.06 162.92,-1168.81"/>
<polygon fill="#63b8ff" stroke="#63b8ff" points="161.14,-1171.84 171.69,-1172.86 164.08,-1165.49 161.14,-1171.84"/>
</a>
</g>
</g>
<!-- Node18 -->
<g id="Node000018" class="node">
<title>Node18</title>
<g id="a_Node000018"><a xlink:href="group__ssd1315__interface__driver.html#ga5878d8d76e365389fbcd81a858c10ae0" target="_top" xlink:title="interface spi bus init">
<polygon fill="white" stroke="#666666" points="296,-1150 164.5,-1150 164.5,-1130 296,-1130 296,-1150"/>
<text xml:space="preserve" text-anchor="middle" x="230.25" y="-1136.5" font-family="Helvetica,sans-Serif" font-size="10.00">ssd1315_interface_spi_init</text>
</a>
</g>
</g>
<!-- Node1&#45;&gt;Node18 -->
<g id="edge17_Node000001_Node000018" class="edge">
<title>Node1&#45;&gt;Node18</title>
<g id="a_edge17_Node000001_Node000018"><a xlink:title=" ">
<path fill="none" stroke="#63b8ff" d="M59.54,-955.26C66.53,-985.74 91.44,-1076.35 148.75,-1121 150.49,-1122.36 152.31,-1123.62 154.2,-1124.79"/>
<polygon fill="#63b8ff" stroke="#63b8ff" points="152.28,-1127.74 162.77,-1129.26 155.52,-1121.53 152.28,-1127.74"/>
</a>
</g>
</g>
<!-- Node19 -->
<g id="Node000019" class="node">
<title>Node19</title>
<g id="a_Node000019"><a xlink:href="group__ssd1315__interface__driver.html#ga5ca066939a033567c2cba496ed42d530" target="_top" xlink:title="interface spi bus write">
<polygon fill="white" stroke="#666666" points="287,-1112 173.5,-1112 173.5,-1080 287,-1080 287,-1112"/>
<text xml:space="preserve" text-anchor="start" x="181.5" y="-1098.5" font-family="Helvetica,sans-Serif" font-size="10.00">ssd1315_interface_spi</text>
<text xml:space="preserve" text-anchor="middle" x="230.25" y="-1086.5" font-family="Helvetica,sans-Serif" font-size="10.00">_write_cmd</text>
</a>
</g>
</g>
<!-- Node1&#45;&gt;Node19 -->
<g id="edge18_Node000001_Node000019" class="edge">
<title>Node1&#45;&gt;Node19</title>
<g id="a_edge18_Node000001_Node000019"><a xlink:title=" ">
<path fill="none" stroke="#63b8ff" d="M61.94,-955.21C73.15,-979.13 104.4,-1039.19 148.75,-1071 153.13,-1074.14 157.91,-1076.89 162.89,-1079.31"/>
<polygon fill="#63b8ff" stroke="#63b8ff" points="161.37,-1082.46 171.94,-1083.2 164.14,-1076.03 161.37,-1082.46"/>
</a>
</g>
</g>
<!-- Node20 -->
<g id="Node000020" class="node">
<title>Node20</title>
<g id="a_Node000020"><a xlink:href="group__ssd1315__base__driver.html#gaba6cf1a8d62b043c16a4f93283621c5f" target="_top" xlink:title="set the chip iic address">
<polygon fill="white" stroke="#666666" points="287,-1062 173.5,-1062 173.5,-1042 287,-1042 287,-1062"/>
<text xml:space="preserve" text-anchor="middle" x="230.25" y="-1048.5" font-family="Helvetica,sans-Serif" font-size="10.00">ssd1315_set_addr_pin</text>
</a>
</g>
</g>
<!-- Node1&#45;&gt;Node20 -->
<g id="edge19_Node000001_Node000020" class="edge">
<title>Node1&#45;&gt;Node20</title>
<g id="a_edge19_Node000001_Node000020"><a xlink:title=" ">
<path fill="none" stroke="#63b8ff" d="M64.91,-955.24C79.13,-973.79 111.82,-1012.86 148.75,-1033 153.12,-1035.38 157.79,-1037.47 162.59,-1039.3"/>
<polygon fill="#63b8ff" stroke="#63b8ff" points="161.22,-1042.53 171.81,-1042.41 163.46,-1035.9 161.22,-1042.53"/>
</a>
</g>
</g>
<!-- Node21 -->
<g id="Node000021" class="node">
<title>Node21</title>
<g id="a_Node000021"><a xlink:href="group__ssd1315__base__driver.html#ga636426ba5b34877da314850c3feee03d" target="_top" xlink:title="enable or disable the charge pump">
<polygon fill="white" stroke="#666666" points="297.88,-1024 162.62,-1024 162.62,-1004 297.88,-1004 297.88,-1024"/>
<text xml:space="preserve" text-anchor="middle" x="230.25" y="-1010.5" font-family="Helvetica,sans-Serif" font-size="10.00">ssd1315_set_charge_pump</text>
</a>
</g>
</g>
<!-- Node1&#45;&gt;Node21 -->
<g id="edge20_Node000001_Node000021" class="edge">
<title>Node1&#45;&gt;Node21</title>
<g id="a_edge20_Node000001_Node000021"><a xlink:title=" ">
<path fill="none" stroke="#63b8ff" d="M73.24,-955.41C90.99,-966.63 120.89,-984.32 148.75,-995 153.98,-997.01 159.48,-998.84 165.06,-1000.51"/>
<polygon fill="#63b8ff" stroke="#63b8ff" points="163.78,-1003.79 174.35,-1003.11 165.67,-997.05 163.78,-1003.79"/>
</a>
</g>
</g>
<!-- Node22 -->
<g id="Node000022" class="node">
<title>Node22</title>
<g id="a_Node000022"><a xlink:href="group__ssd1315__base__driver.html#gaf73633add09cd309645d6f7fba6a32bf" target="_top" xlink:title="set the column address range">
<polygon fill="white" stroke="#666666" points="284.38,-986 176.12,-986 176.12,-954 284.38,-954 284.38,-986"/>
<text xml:space="preserve" text-anchor="start" x="184.12" y="-972.5" font-family="Helvetica,sans-Serif" font-size="10.00">ssd1315_set_column</text>
<text xml:space="preserve" text-anchor="middle" x="230.25" y="-960.5" font-family="Helvetica,sans-Serif" font-size="10.00">_address_range</text>
</a>
</g>
</g>
<!-- Node1&#45;&gt;Node22 -->
<g id="edge21_Node000001_Node000022" class="edge">
<title>Node1&#45;&gt;Node22</title>
<g id="a_edge21_Node000001_Node000022"><a xlink:title=" ">
<path fill="none" stroke="#63b8ff" d="M113.18,-953.12C129.66,-955.51 147.84,-958.16 164.82,-960.63"/>
<polygon fill="#63b8ff" stroke="#63b8ff" points="163.88,-964.03 174.28,-962 164.88,-957.1 163.88,-964.03"/>
</a>
</g>
</g>
<!-- Node23 -->
<g id="Node000023" class="node">
<title>Node23</title>
<g id="a_Node000023"><a xlink:href="group__ssd1315__base__driver.html#gadc6cfb0673de847e8ea31103b6ac5c69" target="_top" xlink:title="set the hardware com pins">
<polygon fill="white" stroke="#666666" points="289.62,-936 170.88,-936 170.88,-904 289.62,-904 289.62,-936"/>
<text xml:space="preserve" text-anchor="start" x="178.88" y="-922.5" font-family="Helvetica,sans-Serif" font-size="10.00">ssd1315_set_com_pins</text>
<text xml:space="preserve" text-anchor="middle" x="230.25" y="-910.5" font-family="Helvetica,sans-Serif" font-size="10.00">_hardware_conf</text>
</a>
</g>
</g>
<!-- Node1&#45;&gt;Node23 -->
<g id="edge22_Node000001_Node000023" class="edge">
<title>Node1&#45;&gt;Node23</title>
<g id="a_edge22_Node000001_Node000023"><a xlink:title=" ">
<path fill="none" stroke="#63b8ff" d="M113.18,-936.88C127.93,-934.74 144.03,-932.4 159.42,-930.16"/>
<polygon fill="#63b8ff" stroke="#63b8ff" points="159.59,-933.67 168.98,-928.77 158.58,-926.74 159.59,-933.67"/>
</a>
</g>
</g>
<!-- Node24 -->
<g id="Node000024" class="node">
<title>Node24</title>
<g id="a_Node000024"><a xlink:href="group__ssd1315__base__driver.html#gad25cf3e6c56532ad83508471bdbb301b" target="_top" xlink:title="set the display contrast">
<polygon fill="white" stroke="#666666" points="286.25,-886 174.25,-886 174.25,-866 286.25,-866 286.25,-886"/>
<text xml:space="preserve" text-anchor="middle" x="230.25" y="-872.5" font-family="Helvetica,sans-Serif" font-size="10.00">ssd1315_set_contrast</text>
</a>
</g>
</g>
<!-- Node1&#45;&gt;Node24 -->
<g id="edge23_Node000001_Node000024" class="edge">
<title>Node1&#45;&gt;Node24</title>
<g id="a_edge23_Node000001_Node000024"><a xlink:title=" ">
<path fill="none" stroke="#63b8ff" d="M73.24,-934.59C90.99,-923.37 120.89,-905.68 148.75,-895 153.98,-892.99 159.48,-891.16 165.06,-889.49"/>
<polygon fill="#63b8ff" stroke="#63b8ff" points="165.67,-892.95 174.35,-886.89 163.78,-886.21 165.67,-892.95"/>
</a>
</g>
</g>
<!-- Node25 -->
<g id="Node000025" class="node">
<title>Node25</title>
<g id="a_Node000025"><a xlink:href="group__ssd1315__base__driver.html#gaec320c631135f244b0057f61fcee74e9" target="_top" xlink:title="set the deselect level">
<polygon fill="white" stroke="#666666" points="287,-848 173.5,-848 173.5,-816 287,-816 287,-848"/>
<text xml:space="preserve" text-anchor="start" x="181.5" y="-834.5" font-family="Helvetica,sans-Serif" font-size="10.00">ssd1315_set_deselect</text>
<text xml:space="preserve" text-anchor="middle" x="230.25" y="-822.5" font-family="Helvetica,sans-Serif" font-size="10.00">_level</text>
</a>
</g>
</g>
<!-- Node1&#45;&gt;Node25 -->
<g id="edge24_Node000001_Node000025" class="edge">
<title>Node1&#45;&gt;Node25</title>
<g id="a_edge24_Node000001_Node000025"><a xlink:title=" ">
<path fill="none" stroke="#63b8ff" d="M65.28,-934.71C79.84,-916.45 112.73,-878.29 148.75,-857 153.12,-854.42 157.78,-852.07 162.58,-849.96"/>
<polygon fill="#63b8ff" stroke="#63b8ff" points="163.86,-853.21 171.83,-846.23 161.25,-846.72 163.86,-853.21"/>
</a>
</g>
</g>
<!-- Node26 -->
<g id="Node000026" class="node">
<title>Node26</title>
<g id="a_Node000026"><a xlink:href="group__ssd1315__base__driver.html#ga561d8fbdda056e323c7be03fb923cd0e" target="_top" xlink:title="enable or disable the display">
<polygon fill="white" stroke="#666666" points="284,-798 176.5,-798 176.5,-778 284,-778 284,-798"/>
<text xml:space="preserve" text-anchor="middle" x="230.25" y="-784.5" font-family="Helvetica,sans-Serif" font-size="10.00">ssd1315_set_display</text>
</a>
</g>
</g>
<!-- Node1&#45;&gt;Node26 -->
<g id="edge25_Node000001_Node000026" class="edge">
<title>Node1&#45;&gt;Node26</title>
<g id="a_edge25_Node000001_Node000026"><a xlink:title=" ">
<path fill="none" stroke="#63b8ff" d="M61.06,-934.76C70.9,-908.92 100.43,-840.69 148.75,-807 153.83,-803.46 159.48,-800.57 165.37,-798.22"/>
<polygon fill="#63b8ff" stroke="#63b8ff" points="166.39,-801.57 174.72,-795.02 164.13,-794.94 166.39,-801.57"/>
</a>
</g>
</g>
<!-- Node27 -->
<g id="Node000027" class="node">
<title>Node27</title>
<g id="a_Node000027"><a xlink:href="group__ssd1315__base__driver.html#ga8b1f24a9f916a7dd450eb26e5cc2a88a" target="_top" xlink:title="set the display clock">
<polygon fill="white" stroke="#666666" points="284,-760 176.5,-760 176.5,-728 284,-728 284,-760"/>
<text xml:space="preserve" text-anchor="start" x="184.5" y="-746.5" font-family="Helvetica,sans-Serif" font-size="10.00">ssd1315_set_display</text>
<text xml:space="preserve" text-anchor="middle" x="230.25" y="-734.5" font-family="Helvetica,sans-Serif" font-size="10.00">_clock</text>
</a>
</g>
</g>
<!-- Node1&#45;&gt;Node27 -->
<g id="edge26_Node000001_Node000027" class="edge">
<title>Node1&#45;&gt;Node27</title>
<g id="a_edge26_Node000001_Node000027"><a xlink:title=" ">
<path fill="none" stroke="#63b8ff" d="M59.69,-934.92C67.09,-904.95 93.03,-815.6 148.75,-769 153.86,-764.73 159.69,-761.19 165.83,-758.25"/>
<polygon fill="#63b8ff" stroke="#63b8ff" points="167.1,-761.51 174.98,-754.44 164.4,-755.05 167.1,-761.51"/>
</a>
</g>
</g>
<!-- Node28 -->
<g id="Node000028" class="node">
<title>Node28</title>
<g id="a_Node000028"><a xlink:href="group__ssd1315__base__driver.html#ga3ad1f873ccfa2ba48e32329246a6eaa9" target="_top" xlink:title="set the display mode">
<polygon fill="white" stroke="#666666" points="298.62,-710 161.88,-710 161.88,-690 298.62,-690 298.62,-710"/>
<text xml:space="preserve" text-anchor="middle" x="230.25" y="-696.5" font-family="Helvetica,sans-Serif" font-size="10.00">ssd1315_set_display_mode</text>
</a>
</g>
</g>
<!-- Node1&#45;&gt;Node28 -->
<g id="edge27_Node000001_Node000028" class="edge">
<title>Node1&#45;&gt;Node28</title>
<g id="a_edge27_Node000001_Node000028"><a xlink:title=" ">
<path fill="none" stroke="#63b8ff" d="M58.29,-934.53C62.02,-898.5 79.38,-778.53 148.75,-719 150.01,-717.92 151.32,-716.9 152.67,-715.93"/>
<polygon fill="#63b8ff" stroke="#63b8ff" points="154.03,-719.2 160.86,-711.1 150.47,-713.17 154.03,-719.2"/>
</a>
</g>
</g>
<!-- Node29 -->
<g id="Node000029" class="node">
<title>Node29</title>
<g id="a_Node000029"><a xlink:href="group__ssd1315__base__driver.html#gaa4de78544224318eff201be0bce8a4dd" target="_top" xlink:title="set the display offset">
<polygon fill="white" stroke="#666666" points="284,-672 176.5,-672 176.5,-640 284,-640 284,-672"/>
<text xml:space="preserve" text-anchor="start" x="184.5" y="-658.5" font-family="Helvetica,sans-Serif" font-size="10.00">ssd1315_set_display</text>
<text xml:space="preserve" text-anchor="middle" x="230.25" y="-646.5" font-family="Helvetica,sans-Serif" font-size="10.00">_offset</text>
</a>
</g>
</g>
<!-- Node1&#45;&gt;Node29 -->
<g id="edge28_Node000001_Node000029" class="edge">
<title>Node1&#45;&gt;Node29</title>
<g id="a_edge28_Node000001_Node000029"><a xlink:title=" ">
<path fill="none" stroke="#63b8ff" d="M57.77,-934.68C59.82,-895.56 72.45,-754.89 148.75,-681 153.72,-676.19 159.59,-672.3 165.87,-669.16"/>
<polygon fill="#63b8ff" stroke="#63b8ff" points="166.8,-672.57 174.61,-665.42 164.04,-666.14 166.8,-672.57"/>
</a>
</g>
</g>
<!-- Node30 -->
<g id="Node000030" class="node">
<title>Node30</title>
<g id="a_Node000030"><a xlink:href="group__ssd1315__base__driver.html#ga4937094fec7bda356b6b0f6e4de1b58a" target="_top" xlink:title="set the display start line">
<polygon fill="white" stroke="#666666" points="284,-622 176.5,-622 176.5,-590 284,-590 284,-622"/>
<text xml:space="preserve" text-anchor="start" x="184.5" y="-608.5" font-family="Helvetica,sans-Serif" font-size="10.00">ssd1315_set_display</text>
<text xml:space="preserve" text-anchor="middle" x="230.25" y="-596.5" font-family="Helvetica,sans-Serif" font-size="10.00">_start_line</text>
</a>
</g>
</g>
<!-- Node1&#45;&gt;Node30 -->
<g id="edge29_Node000001_Node000030" class="edge">
<title>Node1&#45;&gt;Node30</title>
<g id="a_edge29_Node000001_Node000030"><a xlink:title=" ">
<path fill="none" stroke="#63b8ff" d="M57.11,-934.61C56.57,-891.02 60.43,-720.92 148.75,-631 153.66,-626 159.56,-621.99 165.89,-618.79"/>
<polygon fill="#63b8ff" stroke="#63b8ff" points="166.94,-622.15 174.74,-614.98 164.17,-615.72 166.94,-622.15"/>
</a>
</g>
</g>
<!-- Node31 -->
<g id="Node000031" class="node">
<title>Node31</title>
<g id="a_Node000031"><a xlink:href="group__ssd1315__base__driver.html#ga0769254f14f6eb0df080c24bd36552ba" target="_top" xlink:title="enable or disable the entire display">
<polygon fill="white" stroke="#666666" points="280.62,-572 179.88,-572 179.88,-540 280.62,-540 280.62,-572"/>
<text xml:space="preserve" text-anchor="start" x="187.88" y="-558.5" font-family="Helvetica,sans-Serif" font-size="10.00">ssd1315_set_entire</text>
<text xml:space="preserve" text-anchor="middle" x="230.25" y="-546.5" font-family="Helvetica,sans-Serif" font-size="10.00">_display</text>
</a>
</g>
</g>
<!-- Node1&#45;&gt;Node31 -->
<g id="edge30_Node000001_Node000031" class="edge">
<title>Node1&#45;&gt;Node31</title>
<g id="a_edge30_Node000001_Node000031"><a xlink:title=" ">
<path fill="none" stroke="#63b8ff" d="M58.58,-934.83C65.1,-881.53 97.7,-634.95 148.75,-581 154.42,-575.01 161.5,-570.44 169.09,-566.97"/>
<polygon fill="#63b8ff" stroke="#63b8ff" points="170.2,-570.29 178.26,-563.41 167.67,-563.76 170.2,-570.29"/>
</a>
</g>
</g>
<!-- Node32 -->
<g id="Node000032" class="node">
<title>Node32</title>
<g id="a_Node000032"><a xlink:href="group__ssd1315__base__driver.html#ga94d0f25da359df733f4a32371f1cf9d0" target="_top" xlink:title="set the fade blinking mode">
<polygon fill="white" stroke="#666666" points="311.75,-522 148.75,-522 148.75,-502 311.75,-502 311.75,-522"/>
<text xml:space="preserve" text-anchor="middle" x="230.25" y="-508.5" font-family="Helvetica,sans-Serif" font-size="10.00">ssd1315_set_fade_blinking_mode</text>
</a>
</g>
</g>
<!-- Node1&#45;&gt;Node32 -->
<g id="edge31_Node000001_Node000032" class="edge">
<title>Node1&#45;&gt;Node32</title>
<g id="a_edge31_Node000001_Node000032"><a xlink:title=" ">
<path fill="none" stroke="#63b8ff" d="M58.2,-934.54C63.04,-876.18 89.46,-591.16 148.75,-531 149.37,-530.37 150.01,-529.75 150.67,-529.16"/>
<polygon fill="#63b8ff" stroke="#63b8ff" points="152.69,-532.02 158.76,-523.34 148.6,-526.34 152.69,-532.02"/>
</a>
</g>
</g>
<!-- Node33 -->
<g id="Node000033" class="node">
<title>Node33</title>
<g id="a_Node000033"><a xlink:href="group__ssd1315__base__driver.html#ga97faae24f91640a1e41f65b6ef3bc054" target="_top" xlink:title="set the high column start address">
<polygon fill="white" stroke="#666666" points="296,-484 164.5,-484 164.5,-452 296,-452 296,-484"/>
<text xml:space="preserve" text-anchor="start" x="172.5" y="-470.5" font-family="Helvetica,sans-Serif" font-size="10.00">ssd1315_set_high_column</text>
<text xml:space="preserve" text-anchor="middle" x="230.25" y="-458.5" font-family="Helvetica,sans-Serif" font-size="10.00">_start_address</text>
</a>
</g>
</g>
<!-- Node1&#45;&gt;Node33 -->
<g id="edge32_Node000001_Node000033" class="edge">
<title>Node1&#45;&gt;Node33</title>
<g id="a_edge32_Node000001_Node000033"><a xlink:title=" ">
<path fill="none" stroke="#63b8ff" d="M58.05,-934.87C62.24,-874.43 86.77,-561.62 148.75,-493 150.68,-490.86 152.79,-488.9 155.04,-487.11"/>
<polygon fill="#63b8ff" stroke="#63b8ff" points="156.64,-490.25 163.07,-481.83 152.79,-484.4 156.64,-490.25"/>
</a>
</g>
</g>
<!-- Node34 -->
<g id="Node000034" class="node">
<title>Node34</title>
<g id="a_Node000034"><a xlink:href="group__ssd1315__base__driver.html#ga57b7d8deb89c7281b1eab63f54e47b05" target="_top" xlink:title="set the chip interface">
<polygon fill="white" stroke="#666666" points="287.38,-434 173.12,-434 173.12,-414 287.38,-414 287.38,-434"/>
<text xml:space="preserve" text-anchor="middle" x="230.25" y="-420.5" font-family="Helvetica,sans-Serif" font-size="10.00">ssd1315_set_interface</text>
</a>
</g>
</g>
<!-- Node1&#45;&gt;Node34 -->
<g id="edge33_Node000001_Node000034" class="edge">
<title>Node1&#45;&gt;Node34</title>
<g id="a_edge33_Node000001_Node000034"><a xlink:title=" ">
<path fill="none" stroke="#63b8ff" d="M57.77,-934.56C60.44,-869.26 77.99,-517.52 148.75,-443 152.73,-438.81 157.44,-435.47 162.56,-432.81"/>
<polygon fill="#63b8ff" stroke="#63b8ff" points="163.57,-436.19 171.43,-429.09 160.86,-429.73 163.57,-436.19"/>
</a>
</g>
</g>
<!-- Node35 -->
<g id="Node000035" class="node">
<title>Node35</title>
<g id="a_Node000035"><a xlink:href="group__ssd1315__base__driver.html#ga628b2296840b237235088175f4f60e20" target="_top" xlink:title="set iref">
<polygon fill="white" stroke="#666666" points="275.38,-396 185.12,-396 185.12,-376 275.38,-376 275.38,-396"/>
<text xml:space="preserve" text-anchor="middle" x="230.25" y="-382.5" font-family="Helvetica,sans-Serif" font-size="10.00">ssd1315_set_iref</text>
</a>
</g>
</g>
<!-- Node1&#45;&gt;Node35 -->
<g id="edge34_Node000001_Node000035" class="edge">
<title>Node1&#45;&gt;Node35</title>
<g id="a_edge34_Node000001_Node000035"><a xlink:title=" ">
<path fill="none" stroke="#63b8ff" d="M57.62,-934.66C59.44,-866.85 72.98,-485.8 148.75,-405 155.53,-397.77 164.51,-393.06 174,-390.03"/>
<polygon fill="#63b8ff" stroke="#63b8ff" points="174.55,-393.5 183.38,-387.66 172.83,-386.72 174.55,-393.5"/>
</a>
</g>
</g>
<!-- Node36 -->
<g id="Node000036" class="node">
<title>Node36</title>
<g id="a_Node000036"><a xlink:href="group__ssd1315__base__driver.html#ga9d3d028106541d563ae3a43f5064c9f4" target="_top" xlink:title="set the low column start address">
<polygon fill="white" stroke="#666666" points="294.5,-358 166,-358 166,-326 294.5,-326 294.5,-358"/>
<text xml:space="preserve" text-anchor="start" x="174" y="-344.5" font-family="Helvetica,sans-Serif" font-size="10.00">ssd1315_set_low_column</text>
<text xml:space="preserve" text-anchor="middle" x="230.25" y="-332.5" font-family="Helvetica,sans-Serif" font-size="10.00">_start_address</text>
</a>
</g>
</g>
<!-- Node1&#45;&gt;Node36 -->
<g id="edge35_Node000001_Node000036" class="edge">
<title>Node1&#45;&gt;Node36</title>
<g id="a_edge35_Node000001_Node000036"><a xlink:title=" ">
<path fill="none" stroke="#63b8ff" d="M57.56,-934.92C59.04,-865.37 70.98,-456.89 148.75,-367 150.95,-364.46 153.4,-362.17 156.04,-360.11"/>
<polygon fill="#63b8ff" stroke="#63b8ff" points="157.85,-363.11 164.4,-354.78 154.08,-357.21 157.85,-363.11"/>
</a>
</g>
</g>
<!-- Node37 -->
<g id="Node000037" class="node">
<title>Node37</title>
<g id="a_Node000037"><a xlink:href="group__ssd1315__base__driver.html#ga30ca41dbaf656cf85e96fdddf7c2875e" target="_top" xlink:title="set the memory addressing mode">
<polygon fill="white" stroke="#666666" points="286.25,-308 174.25,-308 174.25,-276 286.25,-276 286.25,-308"/>
<text xml:space="preserve" text-anchor="start" x="182.25" y="-294.5" font-family="Helvetica,sans-Serif" font-size="10.00">ssd1315_set_memory</text>
<text xml:space="preserve" text-anchor="middle" x="230.25" y="-282.5" font-family="Helvetica,sans-Serif" font-size="10.00">_addressing_mode</text>
</a>
</g>
</g>
<!-- Node1&#45;&gt;Node37 -->
<g id="edge36_Node000001_Node000037" class="edge">
<title>Node1&#45;&gt;Node37</title>
<g id="a_edge36_Node000001_Node000037"><a xlink:title=" ">
<path fill="none" stroke="#63b8ff" d="M57.42,-934.53C57.98,-860.44 64.83,-415.21 148.75,-317 153.01,-312.01 158.25,-308 164,-304.78"/>
<polygon fill="#63b8ff" stroke="#63b8ff" points="165.11,-308.13 172.68,-300.72 162.14,-301.79 165.11,-308.13"/>
</a>
</g>
</g>
<!-- Node38 -->
<g id="Node000038" class="node">
<title>Node38</title>
<g id="a_Node000038"><a xlink:href="group__ssd1315__base__driver.html#ga471ce39e9ddc28bf3017f21b41825aa5" target="_top" xlink:title="set the multiplex ratio">
<polygon fill="white" stroke="#666666" points="288.12,-258 172.38,-258 172.38,-226 288.12,-226 288.12,-258"/>
<text xml:space="preserve" text-anchor="start" x="180.38" y="-244.5" font-family="Helvetica,sans-Serif" font-size="10.00">ssd1315_set_multiplex</text>
<text xml:space="preserve" text-anchor="middle" x="230.25" y="-232.5" font-family="Helvetica,sans-Serif" font-size="10.00">_ratio</text>
</a>
</g>
</g>
<!-- Node1&#45;&gt;Node38 -->
<g id="edge37_Node000001_Node000038" class="edge">
<title>Node1&#45;&gt;Node38</title>
<g id="a_edge37_Node000001_Node000038"><a xlink:title=" ">
<path fill="none" stroke="#63b8ff" d="M57.3,-934.71C56.96,-857.87 58.46,-373.8 148.75,-267 152.49,-262.57 157,-258.92 161.96,-255.9"/>
<polygon fill="#63b8ff" stroke="#63b8ff" points="163.24,-259.17 170.59,-251.54 160.09,-252.93 163.24,-259.17"/>
</a>
</g>
</g>
<!-- Node39 -->
<g id="Node000039" class="node">
<title>Node39</title>
<g id="a_Node000039"><a xlink:href="group__ssd1315__base__driver.html#ga8ce168fc3a795ae6185de5294c0f68d7" target="_top" xlink:title="set the page address range">
<polygon fill="white" stroke="#666666" points="299,-208 161.5,-208 161.5,-176 299,-176 299,-208"/>
<text xml:space="preserve" text-anchor="start" x="169.5" y="-194.5" font-family="Helvetica,sans-Serif" font-size="10.00">ssd1315_set_page_address</text>
<text xml:space="preserve" text-anchor="middle" x="230.25" y="-182.5" font-family="Helvetica,sans-Serif" font-size="10.00">_range</text>
</a>
</g>
</g>
<!-- Node1&#45;&gt;Node39 -->
<g id="edge38_Node000001_Node000039" class="edge">
<title>Node1&#45;&gt;Node39</title>
<g id="a_edge38_Node000001_Node000039"><a xlink:title=" ">
<path fill="none" stroke="#63b8ff" d="M57.2,-934.98C56.03,-855.91 52.03,-332.47 148.75,-217 149.87,-215.67 151.05,-214.41 152.3,-213.21"/>
<polygon fill="#63b8ff" stroke="#63b8ff" points="154.35,-216.05 160.12,-207.16 150.06,-210.51 154.35,-216.05"/>
</a>
</g>
</g>
<!-- Node40 -->
<g id="Node000040" class="node">
<title>Node40</title>
<g id="a_Node000040"><a xlink:href="group__ssd1315__base__driver.html#ga7105a5fda6c2dcb7e7a8b2716e6a0fc0" target="_top" xlink:title="set the pre charge period">
<polygon fill="white" stroke="#666666" points="290,-158 170.5,-158 170.5,-126 290,-126 290,-158"/>
<text xml:space="preserve" text-anchor="start" x="178.5" y="-144.5" font-family="Helvetica,sans-Serif" font-size="10.00">ssd1315_set_precharge</text>
<text xml:space="preserve" text-anchor="middle" x="230.25" y="-132.5" font-family="Helvetica,sans-Serif" font-size="10.00">_period</text>
</a>
</g>
</g>
<!-- Node1&#45;&gt;Node40 -->
<g id="edge39_Node000001_Node000040" class="edge">
<title>Node1&#45;&gt;Node40</title>
<g id="a_edge39_Node000001_Node000040"><a xlink:title=" ">
<path fill="none" stroke="#63b8ff" d="M57.91,-934.65C62.57,-846.89 97.09,-229.17 148.75,-167 152.05,-163.03 155.97,-159.68 160.27,-156.85"/>
<polygon fill="#63b8ff" stroke="#63b8ff" points="161.76,-160.03 168.88,-152.19 158.42,-153.87 161.76,-160.03"/>
</a>
</g>
</g>
<!-- Node41 -->
<g id="Node000041" class="node">
<title>Node41</title>
<g id="a_Node000041"><a xlink:href="group__ssd1315__base__driver.html#ga7539633c145849b965d6b17820f4afbf" target="_top" xlink:title="set the scan direction">
<polygon fill="white" stroke="#666666" points="300.12,-108 160.38,-108 160.38,-88 300.12,-88 300.12,-108"/>
<text xml:space="preserve" text-anchor="middle" x="230.25" y="-94.5" font-family="Helvetica,sans-Serif" font-size="10.00">ssd1315_set_scan_direction</text>
</a>
</g>
</g>
<!-- Node1&#45;&gt;Node41 -->
<g id="edge40_Node000001_Node000041" class="edge">
<title>Node1&#45;&gt;Node41</title>
<g id="a_edge40_Node000001_Node000041"><a xlink:title=" ">
<path fill="none" stroke="#63b8ff" d="M57.81,-934.54C61.69,-843.11 91.66,-181.51 148.75,-117 149.46,-116.2 150.19,-115.43 150.95,-114.69"/>
<polygon fill="#63b8ff" stroke="#63b8ff" points="152.9,-117.6 158.73,-108.75 148.66,-112.04 152.9,-117.6"/>
</a>
</g>
</g>
<!-- Node42 -->
<g id="Node000042" class="node">
<title>Node42</title>
<g id="a_Node000042"><a xlink:href="group__ssd1315__base__driver.html#ga5133427cea944afe645b01ffadbfbaa4" target="_top" xlink:title="set the segment remap">
<polygon fill="white" stroke="#666666" points="287.38,-70 173.12,-70 173.12,-38 287.38,-38 287.38,-70"/>
<text xml:space="preserve" text-anchor="start" x="181.12" y="-56.5" font-family="Helvetica,sans-Serif" font-size="10.00">ssd1315_set_segment</text>
<text xml:space="preserve" text-anchor="middle" x="230.25" y="-44.5" font-family="Helvetica,sans-Serif" font-size="10.00">_remap</text>
</a>
</g>
</g>
<!-- Node1&#45;&gt;Node42 -->
<g id="edge41_Node000001_Node000042" class="edge">
<title>Node1&#45;&gt;Node42</title>
<g id="a_edge41_Node000001_Node000042"><a xlink:title=" ">
<path fill="none" stroke="#63b8ff" d="M57.78,-934.68C61.56,-841.62 91.49,-148.74 148.75,-79 152.7,-74.19 157.55,-70.29 162.9,-67.13"/>
<polygon fill="#63b8ff" stroke="#63b8ff" points="164.18,-70.4 171.63,-62.87 161.11,-64.11 164.18,-70.4"/>
</a>
</g>
</g>
<!-- Node43 -->
<g id="Node000043" class="node">
<title>Node43</title>
<g id="a_Node000043"><a xlink:href="group__ssd1315__base__driver.html#ga2eb68cd55dac6df0da6f7248793dcb2c" target="_top" xlink:title="set the display zoom in">
<polygon fill="white" stroke="#666666" points="287,-20 173.5,-20 173.5,0 287,0 287,-20"/>
<text xml:space="preserve" text-anchor="middle" x="230.25" y="-6.5" font-family="Helvetica,sans-Serif" font-size="10.00">ssd1315_set_zoom_in</text>
</a>
</g>
</g>
<!-- Node1&#45;&gt;Node43 -->
<g id="edge42_Node000001_Node000043" class="edge">
<title>Node1&#45;&gt;Node43</title>
<g id="a_edge42_Node000001_Node000043"><a xlink:title=" ">
<path fill="none" stroke="#63b8ff" d="M57.69,-934.67C60.7,-838.46 85.78,-100.91 148.75,-29 152.67,-24.52 157.43,-21 162.66,-18.23"/>
<polygon fill="#63b8ff" stroke="#63b8ff" points="163.93,-21.5 171.78,-14.39 161.21,-15.04 163.93,-21.5"/>
</a>
</g>
</g>
</g>
</svg>
